<?xml version="1.0" encoding="utf-8"?>
<!-- Generator: Adobe Illustrator 19.0.0, SVG Export Plug-In . SVG Version: 6.00 Build 0)  -->
<svg version="1.1" id="layer" xmlns="http://www.w3.org/2000/svg" xmlns:xlink="http://www.w3.org/1999/xlink" x="0px" y="0px"
	 viewBox="-153 -46 652 652" style="enable-background:new -153 -46 652 652;" xml:space="preserve">
<style type="text/css">
	.st0{fill:#308D43;}
	.st1{fill:#54A956;}
	.st2{fill:#66B362;}
	.st3{fill:#207F3C;}
	.st4{fill:#40974B;}
	.st5{fill:#26873F;}
	.st6{fill:#1D6332;}
	.st7{fill:#4F9D52;}
	.st8{fill:#1A7638;}
	.st9{fill:#4CA151;}
	.st10{fill:#00983A;}
</style>
<path class="st0" d="M-108.4,206.9c2.1-0.2,3.3,1.7,5.1,2.2c1.1,1.6,2.7,2.8,4.3,3.6c1.4,0.7,3.1,0.7,4.6,1c0.2,1,0.5,2,1.9,1.6
	c2-0.6,1.4,0.8,1.2,1.8c1.1,0.2,1.8-0.5,2.6-0.8c0.1,0,0.2,0,0.3,0.1c0,0.8-0.6,1.3-0.9,1.9c0.4,0.6,1.5-0.9,1.6,0.5
	c0.1,1,0.1,2,0.2,3.1c-0.2,1.5,0.3,2.8,1.3,3.8v4.3c-0.6,0-0.1-1.1-0.9-0.8c-1.1-0.1-1.3-0.9-1.6-1.7c-0.2-0.4,0.1-1.2-0.7-1
	c-0.6,0.1-0.6,0.7-0.7,1.2c-0.3,0.9,0.1,1.6,0.6,2.4c0.5,0.8,1.3,1.5,1.2,2.6c-1.2-0.4-1.4-2-2.7-2.4c-0.4,0.7,0.1,0.9,0.4,1.2
	c0.9,0.9,1.6,2,2.5,3c0.7,0.7,0.3,2.8,0.1,4.3c-0.1,1.3-1.7,0.8-2.4,1.7c1,0.1,2.2-0.4,2,1.2c-0.4,3-0.2,6.1-1.3,9
	c-0.6,1.5-1.5,3-1.6,4.5c-0.3,2.9,1.8,4.8,3.7,6.6c0.1,0.7-0.1,1.4-0.8,1.7c-3-0.5-6.1-0.2-8.9-1.3c-0.6-1.8,1.9-3.1,0.7-5
	c-0.1-0.2,0.6-0.5,1-0.5c0.1,0,0.1,0.1,0.2,0.1l-0.2-0.1v-0.8c0.7-0.7,1.9-0.1,2.6-0.9c2.5,0,0.5-1.1,0.4-1.7
	c0.5-0.4,0.4-0.7,0.1-1.2c-0.7-1.6-2.5-2.5-2.9-4c-0.4-1.8-1.9-2.4-2.7-3.8v-0.8c0.9-0.6,1.4-1.5,1.7-2.5c0.3-0.9,0.6-1.8,1.8-1.7
	c1.7,0.2,1.6-0.9,1.2-1.8c-0.6-1.4-0.8-2.8-0.9-4.2c0.2-1.9,0.5-3.7,1.9-5.2c0,0-0.1-0.2-0.2-0.4c-1.1-2.4-0.7-4.7,0.1-7.1
	c0.2-0.4,0.6-1-0.1-1.2c-0.6-0.1-1.3,0.3-1.2,0.9c0.4,2.2-2.2,4.2-0.6,6.5c0.2,0.3-0.2,0.9-0.4,1.4c-0.6,0-1.4,0-1.2,0.9
	c0.2,1-0.4,0.8-0.9,0.8c-0.6-1.6,0.1-3.3-0.3-5c-0.8,0.6-1.6,2.4-1.9-0.1c-0.2-0.6,0.8-1.2-0.3-1.8c-1.3-0.6-0.9-1.5-0.1-2.3
	c1-1,1-2.3,1.1-3.6c-0.8-0.1-0.5,0.9-1.1,0.9c-0.1-1.7-0.1-1.7-1.1-3.1c0.6,2.5,0,4.3-1.9,6.3c-1.8,1.9-3.2,4.9-0.8,7.7
	c0.1,0.1-0.1,0.4-0.2,0.5c-1,0.7-0.5,1.8-0.4,3.3c-1.2-2.1-1.9-1.7-2.6-0.3c-0.5-0.7-0.9-1.5-1.5-2c-1.5-1.3-2-3.6-4-4.4
	c0.3-1.7-1.3-2.6-1.7-3.9c0.1-0.1,0.3-0.2,0.4-0.3c0.6-0.3,0.5-0.8,0.5-1.3v0c1-0.4,0.8-1.3,0.8-2.1v0c0.4-1.4,2.5-2.4,1-4.3
	c0.4,1.4-1.3,2.1-1.1,3.4l-1.3,0c-0.7-1.2-0.8-2.4-0.1-3.8c-1.2,0.2-1.1,1.1-1.5,1.7c-0.4,0.6-1.4,0.7-1.4,1.7
	c-0.8-0.7-0.3-1.4,0-2.1c0.4-0.8,1-1.6,0.8-2.6c1.3,0.4,0.9-0.5,0.6-0.9c-1-1.5,0.3-2.2,1.1-3c1.1-1,1.6,1,2.6,0.5
	c0.6,0.3,0.7,1.5,1.3,1c0.4-0.3,1.6-0.9,0.8-2C-108.9,207.6-108.6,207.2-108.4,206.9"/>
<path class="st1" d="M-67,230.5c0.8-0.1,1.5,0.1,2.1,0.8c2.1,2.4,4.8,4.4,6.5,7.2c-0.4,0.6-0.7,1.1-0.6,2.1c0.1,1.4-0.3,3-0.6,4.8
	c-0.7-0.9-0.3-1.3-0.2-1.6c0.1-0.5,0.3-1-0.4-1.3c-0.5-0.2-1-0.1-1.4,0.3c-0.4,0.3-0.9,0.8-0.5,1.2c1.2,1.1,1.3,3.4,3.5,3.5
	c0,1,0,2,0.1,3c0,0.1,0,0.3,0,0.4c-0.3,0.1-0.3,0.3,0,0.5v0c0.3,3.2,0.2,6.4,0,9.6c-0.1,1.2-0.1,2.3-1.7,2.4c-0.4,0-0.7,0.1-0.8,0.6
	c0,0.6,0.4,0.5,0.9,0.5c1.1,0,0.8,0.8,0.6,1.3c-0.4,1.1-0.9,2.2-1.1,3.4c-0.1,0.6-0.5,0.3-0.8,0.2c-0.6-0.4-1.2-0.7-2.1-1.3
	c0.2,0.5,0.2,0.8,0.4,0.9c1.3,0.8,1.5,1-0.3,1.8c-2.1,0.9-4.2,1.9-6.5,2.4c-0.3-1.3,0.6-2.5,0.4-3.8c1.5,1.2,2.4,0.9,3-0.8
	c0-0.1,0.1-0.1,0.1-0.2c0,0.1-0.1,0.1-0.1,0.2c-0.9,0.7-1.9,0.6-3,0.4c0.1-1.1,0.3-2.3,0.4-3.4c1.6,1.1,1.4-0.9,2.1-1.3
	c0.1,0.3,0.1,0.7,0.5,0.6c0,0,0.1-0.1,0.1-0.1c0-0.5-0.3-0.5-0.6-0.5c0.3-1.2,1.5-1.5,2.3-1.9c1.2-0.6,0.8-1.2,0.6-2
	c0-0.1,0.1-0.1,0.1-0.2c0,0.1-0.1,0.1-0.1,0.2c-1.5,0.6-2.3,2.4-3.8,3c-0.8-0.1-0.9-0.6-0.9-1.2c0-2-0.3-4.2,2.2-6
	c-1.9,0.4-2.3,0-2.1-1.3c0.2-1.8,0.5-3.5,1-5.2c0.4-1.2-0.2-2.8,1.8-3.3c-2.2-1.7-1.9-3.9-2-6c0.3-1.6,1.8-2.7,2.1-4.3
	c0.4-0.1,1.1,0.2,1.1-0.6c0-0.2-0.4-0.5-0.5-0.5c-0.7,0-0.5,0.7-0.6,1.1c-0.9,0.1-1.8-0.3-2-1.2c-0.2-1-0.1-2-0.2-3.1
	C-67.7,231.3-67,231.1-67,230.5"/>
<path class="st1" d="M-44.5,281.6c0.9,6.7,1.7,13.4,1.5,20.1c-0.3,9.9,0.3,19.7,4.6,28.8c-1.9-1.6-3.6-3.2-4.8-5.4V322
	c-1,0.4-1.4,1-1.3,1.9c-1.4-0.9-2-2.4-2.6-3.9c0-0.3,0-0.6-0.2-0.8c-0.6-1.1-0.1-2,0.8-2.3c1-0.3,1,0.9,1.3,1.5
	c0.5,0.8,0.2,2,1.2,2.5c-0.3-1.4-0.5-2.8-0.8-4.1c-0.2-0.8-0.3-1.9-1.2-2.2c-1.4-0.4-1.5-0.3-0.9-1.7c0.3-0.6,0.6-1.3,0.6-2
	c0.6-0.1,1.2,0.2,1.8-0.3c-0.2-0.6-1.3-0.8-0.7-1.9c1.3-2.6,1-2.7-1.6-4.3c-1.4-0.9-3.4-0.6-4.2-2.4v-0.9c0.2-1.1,1.2-1.4,2-1.7
	c1.7-0.7,1.4-2.2,0.6-2.7c-1.4-1-0.7-1.9-0.3-2.7c0.6-1.2,0.4-3.2,2.5-3.3c0.1,0,0.4-0.6,0.3-0.9c-0.3-1,0.3-2.2-0.6-3.1
	c-0.5,1-1.7,2.5-2.3,1.3c-0.7-1.3-1.6-0.8-2.2-1.2c-0.7-0.6-1.9-0.3-2.3-1.7c-0.2,1-0.1,2.5-0.9,2.2c-2.1-0.8-2.2,1.1-3.1,1.9
	c0.1-3.7,1.7-6.4,5.6-7.2c0.3-0.1,0.6-0.1,0.9-0.2c0,0-0.1-0.1-0.1-0.2c-0.4-0.1-0.6,0-0.8,0.3c-1.2-0.1-2.8,0.6-2.5-1.7
	c1.3-0.9,1-2.6,1.7-3.9c0.2,0.3,0.5,0.4,0.8,0.4c0.7,0.6,0.9,0.6,0.8,0.3c-0.4-1,0.6-1.7,0.5-2.6c-0.1-1.2,1-1.4,1.6-1.6
	c0.8-0.2,1.2,0.7,1.5,1.5c0.6,1.8,1.5,3.5-0.5,5c-0.2,0.2-0.4,0.7-0.2,0.9c0.2,0.4,0.7,0.4,1.1,0.3c0.4-0.1,0.8-0.4,1.4-0.7
	C-45.4,280.8-46.3,282.2-44.5,281.6 M-46.9,291.7c-0.2,1.9,0.8,2.2,1.2,2.9C-43,292.1-46.4,293.1-46.9,291.7 M-46,298.5
	c-0.1-0.1-0.2-0.2-0.3-0.2c-0.1,0-0.2,0.1-0.3,0.2c0.1,0.1,0.2,0.2,0.3,0.2C-46.3,298.6-46.1,298.5-46,298.5 M-45.5,320.7
	c0,0.1,0,0.2,0,0.3c0,0,0.1-0.1,0.1-0.1C-45.4,320.8-45.5,320.8-45.5,320.7"/>
<path class="st2" d="M-66.1,319.1c-0.9-0.4-1.8-0.7-2.8-1.1c-0.4-0.1-0.8-0.2-1.2-0.2c-0.9-0.6-1.9-1.2-3-1.5
	c-1.1-0.5-2.2-1-3.3-1.5c-2-1-4.1-1.8-5.9-3.2c-3.1-2.6-6.8-4.3-10.5-6.1c-2.6-1.3-5.5-2.1-6.9-5.1c0.7-0.3,1.6,0.2,2.2-0.5h0.9
	c0.6,0.7,1.4,0.3,2.1,0.4c0.3,0,0.6,0,0.9,0c0.1,0.7,1.3,0.8,0.8,1.7c-0.4,0.1-0.9-0.3-1.3,0.3c0.4,0.1,0.7,0.3,1,0.4
	c2.6,0.3,5.2,0.3,7.3,2.1c0.2,0.2,0.5-0.1,0.7-0.2c1.5-0.5,3-1.2,4.7-0.9c0.9,0.2,2.2-0.3,2.1,1.9c0.6-1.4,0.8-2.4,2-2.2
	c1.6,1.6,1.5,3.1-0.4,4.1c-0.4,0.2-0.8,0.6-0.7,0.9c0.4,2.3-0.8,1.9-2.2,1.5c-0.3-0.1-0.8-0.3-1.1,0.5c1.9,1.5,5.6-1,6.5,3
	c-0.3-1.7,0.9-2.1,1.9-1.9c0.9,0.1,1.7-0.3,2.5-0.3c1.5-0.3,2.8,0.5,4.3,0.4c0.1,1.1-1.3,1.5-1.3,2.6c-0.1,0.1-0.1,0.1-0.2,0.2
	l0.2-0.2c0.7,0.1,1.1-0.6,1.7-0.9c1.2,2.6,3.7,3,6,3.9c0.5,2.5,1.8,3.8,4.5,3.7c0.7,0,1.3,0.6,1.8,1c0.6,0.5,0.9,0.2,1-0.5
	c1-0.1,0.7,1.4,1.7,1.3c-0.1,0.7,0.2,1.3,0.7,1.8c0.4,0.3,0.5,0.7-0.2,0.7C-54.8,322.6-60.5,321.1-66.1,319.1"/>
<path class="st3" d="M-128.5,213c0.6-0.8-0.2-1.8,0.5-2.5c0.1,0,0.2,0,0.3,0c0.8,1.4,2.2,2.1,3.6,2.8c0.2,0.1,0.2,0.7,0.6,0.6
	c0.5-0.1,0.4-0.5,0.3-0.9c-0.4-1.3,0.3-1.1,1.1-0.8c0.7,0.2,1.4,0.3,2,0.5c0.1,0.6,0,1.3,0.9,1.3l0,0c0.7,2.1,0,2.9-2.5,2.1
	c1,1,2,0.8,2.9,0.9c0.4,1.5-2,2.2-1.3,3.8v1.3c-0.6,0.1-1.1,0.3-0.2,0.8c0.4,0.3,1.1-0.1,1.5,0.5c1,2.6,0.4,3.4-2.5,3.6
	c-0.7,0-0.9,0.5-0.9,1.1h-0.4c-0.2-0.3-0.5-0.4-0.8-0.3c-0.1,0-0.1,0.1-0.1,0.2c0.3,0.1,0.6,0.1,0.9,0.2c0.1,0.1,0.3,0.3,0.4,0.4
	c0.3,0.6,0.7,1,1.3,1.3c1,1.2-0.8,2.6,0.3,3.8c0.1,0.1-0.3,0.5-0.4,0.7c0,0.1-0.1,0.1-0.2,0.1c-1.1,0.2-1.4,1.3-2.3,1.8
	c-0.2-0.1-0.3-0.3-0.5-0.4c-0.5-0.5-1-0.5-1.5-0.1c-0.2,0.1-0.3,0.4-0.3,0.5c0.1,0.8,0.8,0.4,1.2,0.5c1.1,0.3,2,0.7,1.9,2.1
	c-1.6,0.1-3.1,1-4.7,0.9c-1.1,0.6-2.9,0.4-2.5,2.4c-0.3,0-0.5,0.1-0.8,0.1c-0.8-2.8-1-5.7-0.3-8.6c0.7-0.3,1.4,0.8,2.1,0
	c-0.1-0.7-1.4-0.6-1.2-0.7c1.6-0.7-0.5-1.6,0.2-2.2c0.3-0.1,0.7-0.1,0.6-0.5c0-0.1-0.1-0.1-0.1-0.1c-0.5,0-0.5,0.3-0.5,0.6h-0.8
	c-0.4-1.1-0.9-2.2,0-3.4c1.4-0.3,0.2-1.6,0.8-2.1c0.1-0.1,0.1-0.1,0.2-0.2c-0.1,0.1-0.1,0.1-0.2,0.2c-1.4,0,0.4-1.2-0.5-1.3
	c0.1-0.3,0.2-0.5,0.2-0.8c1.5-0.9,1.8,0.1,1.7,1.7c0.6-1,1.5-1.5,0.9-2.3c-0.6-1-1.7-0.5-2.6-0.7c-0.1-0.1,0-0.3,0.1-0.3
	c0.6-0.5,1.8-0.6,0.9-1.8c-0.3-0.4,0-0.9,0.4-1c1.6-0.5,1.3-1.6,0.9-2.7c0-0.1,0.1-0.1,0.1-0.2c0,0.1-0.1,0.1-0.1,0.2
	C-128,214.7-128.5,213.9-128.5,213 M-123.8,223.1c0-0.5-0.2-1-0.8-1c-0.1,0-0.4,0.2-0.4,0.4c-0.1,0.6,0.3,0.7,0.8,0.7
	c0,0.3,0,0.6,0,0.8c-2.1,0.7-2.7,3-4.3,4.3c-0.3,0.1-0.6,0.1-0.6,0.4c0,0.1,0.2,0.3,0.2,0.2c0.4,0,0.4-0.4,0.4-0.6
	c1.5,0.5,2.2-1.7,3.8-1c0.3,0.1,0.3-0.6,0.2-0.7c-1-1,0.2-1.8,0.3-2.6c0.4-0.1,0.8-0.1,0.9-0.6
	C-123.2,223.4-123.6,223.3-123.8,223.1 M-122.5,221.5c2.1-2.6,2.1-2.6,1.6-3.7c-0.3,0.5-0.5,1-0.9,1.4c-0.4,0.5-1,0.7-1.5,1.1
	c-0.9,0.6-0.5,1,0.4,1.2C-122.8,221.8-122.6,221.8-122.5,221.5"/>
<path class="st2" d="M-44.5,281.6c-1.8,0.6-0.9-0.8-1-1.6c-0.6,0.3-0.9,0.6-1.4,0.7c-0.4,0.1-0.9,0.2-1.1-0.3
	c-0.1-0.2,0-0.8,0.2-0.9c2-1.5,1.1-3.2,0.5-5c-0.3-0.8-0.6-1.7-1.5-1.5c-0.6,0.1-1.7,0.4-1.6,1.6c0.1,0.9-0.9,1.6-0.5,2.6
	c0.1,0.3-0.1,0.4-0.7-0.3v-3v-0.8v-0.4c0.2-0.3,0.4-0.6,0.5-0.9c0.7,0.1,1.4,0.1,2.1,0.2c1.1,0.2,1.6-0.8,1.6-1.3
	c0.1-0.9-0.8-0.6-1.4-0.4c-0.7,0.2-1.2,0-1.1-0.7c0.1-1.6-0.8-3.7,1.8-4.3c0.3-0.1,0.6-0.4,0.6-0.8c-1.5,0.2-1.5,0.2-1.1-1.2
	c0.2-0.6,0.2-1-0.4-1.1c-1.2-0.1-1.2-0.1-1.3-1.1c-1.9-0.5-3.8-1.5-5.9-0.9c-0.4,0.1-0.9,0.2-1.1-0.3c-0.6-1-0.1-5.9,0.6-6.9
	c0.1-0.1,0.1-0.1,0.2-0.2c-0.1,0-0.1,0.1-0.2,0.2c-1.2,0.1-0.4-1.8-1.7-1.7v-0.5c0-0.1,0-0.3,0-0.4c0.6-1.6,0.6-2,0-3
	c-2.3,0-2.3-2.3-3.5-3.5c-0.5-0.4,0.1-0.9,0.5-1.2c0.4-0.4,0.9-0.5,1.4-0.3c0.6,0.3,0.4,0.8,0.4,1.3c-0.1,0.4-0.5,0.7,0.2,1.6
	c0.3-1.9,0.7-3.4,0.6-4.8c-0.1-0.9,0.3-1.4,0.6-2.1c1.9,1.6,3.2,3.9,4.2,5.9c4.3,8.6,8.5,17.3,9.1,27.2
	C-44.9,275-44.7,278.3-44.5,281.6 M-54.3,259c0,0-0.1-0.1-0.1-0.1c0,0-0.1,0.1-0.1,0.1c0.1,0.1,0.1,0.1,0.2,0.2
	C-54.4,259.1-54.4,259-54.3,259"/>
<path class="st0" d="M-130.5,242c0.3,0,0.6-0.1,0.8-0.1c-0.4-2,1.5-1.9,2.5-2.4v1.3c-0.2,0.1-0.3,0.3-0.5,0.4
	c-1.1,0.1-0.8,0.9-0.8,1.6c0.1,2.7,1.8,4.1,4.2,4.8h0c0.2,0.4,0.5,0.4,0.9,0.4l0.8,0.3c0,0.2-0.1,0.4-0.1,0.5
	c-1.5,0.5-2.3,2.4-4.2,1.5c0,1.1,1.7,1.1,0.9,2.3c-0.2,0.1-0.6,0.2-0.6,0.3c-0.1,0.5,0.3,0.5,0.6,0.5c0,0.4,0.1,0.7,0.4,0.9
	c0.1,0.1,0.3,0.3,0.4,0.4c0.4,0.8-1.1,1.6-0.3,1.9c1.3,0.5,1.8,1.7,2.9,2.3l0,1.3c0.2,1.1-1.5,1.4-1,2.5c0.4,0.9,1,1.8,2.3,1.8
	c0,0.6,0,1.1,0.1,1.7c0,0.3,0.1,0.7-0.1,0.8c-1.9,1.9-0.3,3.1,0.7,4.5c1,1.5,1.9,3.2,2.8,4.9c1,1.2,2.2,2,3.8,2.1v0.4
	c-0.4,0.3-1.1,0.5-0.4,1.2c0.9-1,2.7-0.1,3.4-1.6h3c0.1,0.5-0.3,1.2,0.4,1.5c0.5,0.2,0.7-0.3,0.9-0.7c0.7,0.4,1.4,0.9,2.1,1.3
	c-0.5,0.6-1.2,0.7-1.9,0.6c-0.5-0.1-0.9,0.2-0.9,0.6c0,1.7,2.1,0.6,2.6,1.8c0.2,0.4,0.9,0,1.3-0.3c0.2-0.2,0.1-0.6,0.2-1
	c-1.5,0-0.5-1.2-0.8-1.8h0c0.5,0.1,1.1,0.5,1.6,0.3c1.6-0.6,1.4,0.5,1.4,1.4c0,0.1-0.1,0.1-0.1,0.2c0-0.1,0.1-0.1,0.1-0.2
	c0.3,0,1,0.1,1,0.1c0.5-1.9,1.9-0.9,2.9-1c0.6,0,1.2,0.1,1.7-0.1c1.5-0.6,1.9,0.4,2.3,1.6c1.4-1.4,2.9-1.3,4.4-0.6
	c-0.3,0.4-0.5,1-0.8,1.1c-2,0.5-3.7,1.4-5.1,3c-0.1,0.1-0.6-0.2-0.9-0.2c-1,0.2-2,0.7-3,0c-0.2-0.6-0.1-2-0.6-1.5
	c-1.2,1.2-1.9,0-2.7-0.1c-1-0.1-2-0.4-2.6,0.7h-0.4c-0.4-0.7-0.9-0.1-1.3,0c-0.6,0-1-0.3-1.3-0.8c-0.1-0.7,0.3-2-1-1.6
	c-2.6,0.8-4.5,0.2-6.3-1.6c-0.5-0.5-1.1-0.1-1.6,0.2c-0.2-0.5-0.2-1-0.5-1.4c-3.1-3.5-4.3-8-6.9-11.8c-0.8-1.1-1.9-2.7-1.3-4.4
	c0.1-0.2,0-0.5-0.2-0.6c-3.1-3.8-2.4-8.8-4.1-13.1C-130.3,247.9-131.2,244.9-130.5,242 M-123.9,259.9c-0.1,0.1-0.4,0.2-0.4,0.2
	c0.1,0.3,0.2,0.5,0.3,0.7c0.2-0.1,0.4-0.2,0.5-0.3C-123.4,260.3-123.5,260-123.9,259.9 M-122.2,266.7c-0.1-0.1-0.2-0.3-0.2-0.3
	c-0.1,0-0.2,0.1-0.3,0.1c0.1,0.1,0.2,0.2,0.3,0.4C-122.4,266.9-122.3,266.8-122.2,266.7"/>
<path class="st4" d="M-67,230.5c0,0.6-0.6,0.8-0.9,1.2c-0.6,0-0.8,0.5-1.1,0.8c-0.6,0.6-0.9,0.4-1-0.4c0-0.1,0.1-0.1,0.1-0.2
	l-0.1,0.2c-1.6-2.6-1.7-2.6-3.8-0.6c-0.6,0.6-0.6-0.3-0.9-0.3c0-0.1,0-0.3,0-0.4c0.2-0.2,0.4-0.4,0.6-0.5c-0.1,0-0.2-0.1-0.3-0.2
	c-0.1,0.2-0.2,0.5-0.3,0.7c-1.3,0.3-1.6,1.8-2.5,2.5c0.1-1.1-0.5-2.4,0.5-3.4c0.3-0.3-0.1-0.3-0.3-0.5c-1-0.8-1-1.5,0.4-2
	c0.5-0.2,1.1-0.3,0.9-0.9c-0.3-0.6-1-0.4-1.5-0.1c-0.7,0.4-1.4,0.9-1.3,2c0.1,0.6,0.2,1.5-0.5,1.7c-1,0.4-0.7,1.1-0.8,1.8
	c-0.2,3.2-0.5,6.4-2.6,9.2c0,0.5,0,1.4-0.1,1.4c-2,0.1-1.4,2.8-3.1,3.2c-0.6,0.1-1.2,0.3-1.5,1c-0.9-0.1-1-0.8-0.7-1.4
	c0.4-1,0.3-1.9,0.4-2.9c1.1-0.4,1-1,0.4-1.7l0.4-0.5c0.8-0.8,2.6-1.4,0.7-2.7c-0.9-0.6,0.5-2.2-1.1-2.4c-0.3-1.8,0.5-3.4,0.8-5.1
	v-4.3c0-1,1.5-1,1.3-2.1c0.6,0,1-0.4,0.7-1c-0.5-0.9,0-1.6,0.1-2.4c0.6,0.7,0.6,1.7,0.8,2.5c0.1,0.4,0.4,1,0.8,0.6
	c1.7-1.9,3.8,0.8,5.5-0.4c0.2-0.2,0.5,0.3,0.4,0.6c-0.4,3.1,1.2,1.4,2.3,1c0.5,0.3,1.1,0,1.6,0.5C-70.9,226.8-69,228.6-67,230.5
	 M-80.7,232V231c0-0.6-0.1-1.1-0.8-1.3c-0.6-0.2-0.9,0.1-1.2,0.6c-0.4,0.6-0.2,0.9,0.4,1.3c0.6,0.3,0.2,1,0.3,1.6
	c0.1,0.6-0.9,1.6,0,1.8c1,0.2,0.7-1.1,1-1.7C-80.8,232.7-80.7,232.2-80.7,232"/>
<path class="st5" d="M-111,208.7c-1,0.5-1.5-1.5-2.6-0.5c-0.8,0.8-2.1,1.4-1.1,3c0.3,0.5,0.7,1.4-0.6,0.9c-0.2-0.3-0.5-0.6-0.7-1
	c-0.6,1.5-1,2.9-0.9,4.5c-1.4,0.2-1-1.7-2.1-1.7v0c-0.2-0.6,1.1-1.4-0.4-1.7c0-1.5-1.2-2.2-2.1-3c0-0.8,0-1.5,0.2-2.3
	c0.4-1.4,0.4-2.8-0.5-4.2c-0.3,0.9,0.1,1.5,0.2,2.2c0.2,1.6-0.7,2.8-1.7,3.7c-0.7,0.6-1.8,0.1-2.8-0.2c-1.1-0.4-0.7-1.6-1.4-2.2
	c-0.4-0.6-1.1-1.2-0.4-2.1c0.6,0,1.1,0,1.7,0c0.2,0.1,0.3,0.3,0.4,0.4l0,0c0.1,0.1,0.3,0.3,0.4,0.4c0.1,0.4,0.2,0.7,0.6,0.8
	c0.1,0,0.3-0.2,0.5-0.3c-1-1-0.3-3.2-2.3-3.6c0-0.1,0-0.2,0-0.3c0.1-0.7-0.5-1.3-0.6-1.9c-0.3-1.2-1.8-2.3-0.5-3.8
	c4.5,5.4,9.6,9.8,16.9,10.8C-111,207.3-111,208-111,208.7"/>
<path class="st6" d="M-13.6,349.7c6.4,3,12.9,5.5,19.8,6.7c1.4,0.2,2.8,0.6,4.2,0.3c1.2-0.3,2.2,0.2,2.2,1.2c0,1-1.3,0.9-2,0.7
	c-3.7-0.7-7.5-1-11-2.4c-4.3-1.8-8.7-3.2-12.9-5.4c-0.3-0.2-0.6-0.4-0.9-0.6C-14,350-13.8,349.8-13.6,349.7"/>
<path class="st3" d="M-126.7,201.5c0,0.1,0,0.2,0,0.3c0.7,1.4-0.3,1.8-1.3,2.2c-0.7,0.9,0,1.5,0.4,2.1l-0.9,1.4
	c-0.9-4.3-1.9-8.6-2.8-12.9c-0.1-0.5-0.1-1-0.1-1.5c0.1-0.7,0-1.8,0.9-1.9c0.8-0.1,0.9,0.9,1.1,1.6c-0.4,0.8-0.8,1.5,0.6,1.7l0,0
	C-129.3,197.2-129,199.7-126.7,201.5"/>
<path class="st1" d="M-74.3,224.4c-1.1,0.4-2.7,2-2.2-1c0-0.3-0.2-0.7-0.4-0.6c-1.8,1.3-3.8-1.5-5.5,0.5c-0.4,0.5-0.6-0.1-0.8-0.6
	c-0.3-0.8-0.2-1.8-0.8-2.5c-0.2-0.1-0.3-0.3-0.4-0.4c-0.4-0.7-0.5-1.5-0.4-2.3c1.8,0.7,3.6,1.5,5.1,2.9c0.6,0.7,1.4,1.1,2.6,1.2
	C-75.8,221.8-75,223.2-74.3,224.4"/>
<path class="st7" d="M-37.5,331.8c5.5,5.4,11.3,10.4,17.8,14.6c-0.2,0.1-0.3,0.3-0.5,0.4c-4.4-2.2-8.1-5.3-11.8-8.6
	c-2.1-1.9-4.1-3.8-6.2-5.8C-37.9,332.2-37.7,332-37.5,331.8"/>
<path class="st7" d="M-116.4,281.6c0.5-0.3,1.1-0.7,1.6-0.2c1.8,1.8,3.8,2.4,6.3,1.6c1.3-0.4,0.8,0.9,1,1.6c-0.7,0-1.6,0-0.8,1.1
	c0.3,0.4,0.4,0.9,0.4,1.4c0,0.2-0.1,0.3-0.1,0.5c-0.9-0.4-1.8,0.9-2.7-0.1c-0.3-0.6-0.8-1.1-1.3-1.5l-2.2-2c-0.4-0.6-0.9-1-1.5-1.3
	C-116,282.4-116.2,282-116.4,281.6"/>
<path class="st1" d="M-49.5,325.1c0.7-0.1,0.6-0.4,0.2-0.7c-0.5-0.5-0.8-1.1-0.7-1.8c0-0.9,0.7-0.8,1.3-0.9c0.5,0,1,0,1.4,0.4
	c1.4,1.9,2.8,3.9,4.6,5.5c0.5,0.4,0.4,1,0.2,1.6C-44.8,327.8-47.2,326.5-49.5,325.1"/>
<path class="st5" d="M-42.5,329.2c0.2-0.6,0.3-1.2-0.2-1.6c-1.8-1.6-3.2-3.5-4.6-5.5c-0.3-0.5-0.9-0.4-1.4-0.4
	c0.6-0.9,0-1.6-0.4-2.3c-0.5-1-1.6-1.6-1.8-2.8c2.1,0.3,2.4,2.4,3.8,3.4c0.5,1.5,1.1,3,2.6,3.9c0.3,0.5,0.5,1.2,1.3,1.2
	c1.2,2.1,2.9,3.9,4.8,5.4l0,0c-0.1,0.3,0.1,0.4,0.3,0.5c0.2,0.3,0.4,0.5,0.6,0.7c-0.2,0.2-0.4,0.5-0.6,0.7l0,0
	c0.1-0.9-0.5-0.9-1.1-0.9c-0.5-0.4-1-0.8-1.5-1.2c0-0.5-0.3-0.6-0.7-0.6h0C-41.5,329.1-41.8,328.9-42.5,329.2L-42.5,329.2z"/>
<path class="st7" d="M-94.3,213.8c-1.6-0.3-3.2-0.4-4.6-1.1c-1.7-0.8-3.2-2-4.3-3.6c1.2-1,2,0.5,3,0.6c2.1,0.3,4.3,0.8,5.5,2.9
	c0.1,0.2,0.3,0.4,0.4,0.6l0,0.1C-94.3,213.5-94.4,213.7-94.3,213.8"/>
<path class="st7" d="M-84.9,217.5c-0.1,0.8-0.1,1.6,0.4,2.3c-1,0.1-1.4,0.6-1.1,1.7c0.3,0.7,0.4,1.4,0.6,2.1
	c-1.4-0.3-0.6-1.9-1.5-2.6c-0.3,0.3-0.7,0.6-1,0.9c-0.1-1-0.1-2-0.2-3.1c-0.1-1.5-1.1,0.1-1.5-0.5c0.3-0.6,0.9-1.1,0.8-1.9
	c0.8-0.3,1.6-0.3,2.2,0.4c0.2,0.1,0.3,0.2,0.4,0.3C-85.4,217.2-85.1,217.2-84.9,217.5"/>
<path class="st8" d="M-128.5,207.5l0.9-1.4c0.7,0.6,0.3,1.8,1.4,2.2c0.9,0.3,2.1,0.8,2.8,0.2c1-0.9,1.9-2.2,1.7-3.7
	c-0.1-0.7-0.5-1.3-0.2-2.2c0.9,1.4,0.9,2.8,0.5,4.2c-0.2,0.8-0.2,1.5-0.2,2.3c-0.2,0.1-0.5,0.3-0.7,0.4c-1.7,0.7-3.7-0.6-5.3,0.9
	c-0.1,0-0.2,0-0.3,0C-128.2,209.5-128.3,208.5-128.5,207.5"/>
<path class="st7" d="M-88.7,216.3c-0.8,0.3-1.5,1-2.6,0.8c0.2-0.9,0.8-2.3-1.2-1.8c-1.4,0.4-1.7-0.6-1.9-1.6c0.1,0,0.2-0.1,0.2-0.1
	c0-0.1-0.1-0.2-0.2-0.3l0-0.1c0-0.1,0-0.2,0-0.3C-92.2,213.7-90,214.2-88.7,216.3"/>
<path class="st8" d="M-127.6,215.5c0.3,1.1,0.7,2.2-0.9,2.7c-0.4,0.1-0.7,0.6-0.4,1c0.8,1.2-0.4,1.3-0.9,1.8
	c-0.1-2.8,0.7-5.5,1.4-8.1C-128.5,213.9-128,214.7-127.6,215.5L-127.6,215.5z"/>
<path class="st0" d="M-20.1,346.8c0.2-0.1,0.3-0.3,0.5-0.4c2,1.1,4,2.2,6.1,3.3c-0.2,0.2-0.4,0.3-0.6,0.5
	C-16.3,349.3-18.3,348.1-20.1,346.8"/>
<path class="st4" d="M-111,208.7c0-0.7,0-1.4,0-2.1c0.9,0,1.8-0.6,2.6,0.3c-0.2,0.3-0.6,0.7-0.5,0.8c0.8,1.1-0.4,1.7-0.8,2
	C-110.3,210.2-110.4,209-111,208.7"/>
<path class="st6" d="M-126.7,201.5c-2.3-1.9-2.6-4.3-2.1-7c0.5,0.3,0.7,0.7,0.9,1.3c-1.3,1.5,0.2,2.6,0.6,3.8
	C-127.2,200.2-126.7,200.8-126.7,201.5"/>
<path class="st8" d="M-129.7,230.5c-0.7,0.6,1.4,1.5-0.2,2.2c-0.3,0.1,1,0.1,1.2,0.7c-0.7,0.9-1.4-0.2-2.1,0.1c-0.5-1-0.6-2.1,0.3-3
	L-129.7,230.5L-129.7,230.5z"/>
<path class="st8" d="M-129.9,221.4c0.8,0.2,1.9-0.3,2.5,0.6c0.6,0.9-0.4,1.4-0.9,2.3c0.1-1.5-0.2-2.5-1.7-1.6
	C-130.2,222.3-130.2,221.9-129.9,221.4"/>
<path class="st8" d="M-129.7,224.9c-0.6,0.6,0.6,1.9-0.8,2.1c0.2-1.1-1.3-2.5,0.3-3.5C-129.3,223.8-131.1,224.9-129.7,224.9
	L-129.7,224.9z"/>
<path class="st6" d="M-128.8,194.6c-1.4-0.1-1-0.9-0.6-1.7C-129.2,193.4-129,194-128.8,194.6"/>
<path class="st7" d="M-39.2,331.5c0.6,0,1.2,0,1.1,0.9C-38.6,332.3-39,332-39.2,331.5"/>
<path class="st1" d="M-42.5,329.2c0.7-0.3,1-0.1,1,0.6C-41.9,329.8-42.3,329.6-42.5,329.2"/>
<path class="st1" d="M-41.5,329.8c0.4,0,0.7,0.1,0.7,0.6C-41.1,330.3-41.4,330.2-41.5,329.8"/>
<path class="st0" d="M-94.3,213c0,0.1,0,0.2,0,0.3c-0.1-0.2-0.3-0.4-0.4-0.6C-94.6,212.8-94.5,212.9-94.3,213"/>
<path class="st1" d="M-85.8,217.2c-0.1-0.1-0.3-0.2-0.4-0.3C-86.1,217-85.9,217.1-85.8,217.2"/>
<path class="st1" d="M-38,331c-0.3-0.1-0.4-0.2-0.3-0.5C-38.3,330.7-38.1,330.9-38,331"/>
<path class="st8" d="M-121.2,266.3c0-0.6,0-1.1-0.1-1.7c0.2,0,0.3,0,0.5,0c0.4,1.1,1.1,1.6,2.7,1.7c-1-0.7-1.7-1.2-2.3-1.7
	c0-0.7,0.5-1.1,1-1.5c0.3-0.2,0.7-0.6,0.3-0.8c-1.2-0.6-2-1.8-3.4-2c0-0.4,0-0.8,0-1.3c0.4-0.1,0.9,0.2,1.4-0.3
	c-0.7-0.3-1.4-0.6-1.3-1.5c0.9-0.2,2.2-0.7,1.3-1.7c-1-1.1-0.4-1.4,0.2-2.1c0.9-1.2,1.5-2.4-0.2-3.5c1-0.8,2,0.4,3.1,0.1
	c0.5-0.1,1,0.2,1.1,0.7c0.2,0.6-0.2,0.9-0.7,1.2c-0.4,0.3-1.3,0.5-0.7,1.2c0.4,0.5,1.4-0.1,1.5-0.3c0.4-1.6,2.1-0.2,2.7-1.2
	c0.9,0.8,1.7-0.3,2.5,0.1c-0.7-0.4-1.5-0.6-2.2-0.8c-0.8-0.3-1.7-0.5-2.3-1c-0.8-0.7-1.6-0.7-2.5-0.7c-0.1-1.2-1.1-0.8-1.7-0.9
	c0-0.1,0-0.3,0-0.4c1.3-0.3,2.6-0.3,2.1-2.3c-0.3-1.2,1.1-1.4,1.7-1.3c1,0.1,0.1,0.7,0.1,1.2c-0.1,0.9,0.2,1.5,1.3,1.4
	c1.6-0.3,2.3-1.6,2.9-2.8c0.3-0.6-0.5-1-1.3-1.3c-1.3-0.6-3.1,0.3-4.1-1.2c0.8-0.9,2.4,0.8,3-0.8c2.5,1.1,4.9,2.4,7.7,2.5
	c-0.8,0.7-0.4,1.1,0.4,1.2c1,0.2,2.3-0.2,3.1,0.3c1.3,0.6,1.6-0.2,2.2-0.7c-1.9-0.4-3.9-0.3-5.7-0.7v-1.7c1.7-0.1,2.1-0.6,0.6-1.8
	c-0.3-0.2-0.4-0.5-0.6-0.8v-1.7c0.5-0.6,0.1-1.7,0.9-2.1c0.7,0.4-0.1,1.2,0.4,1.7c-0.1,1.1,0.3,1.5,1.3,0.9c1.7,1.6,3.3,3.5,4,5.6
	c0.7,2.1,1.3,1.6,2.4,0.8c0.7,1.3,2.2,2,2.7,3.8c0.4,1.5,2.2,2.4,2.9,4c0.2,0.5,0.4,0.9-0.1,1.2h-0.4h0l-0.5-0.4h0l-0.4-0.4v0
	c0-0.4-0.1-0.7-0.4-0.9c-0.1-0.3-0.3-0.3-0.4,0c-0.9,0.2-1.6,0.2-2-1c-0.2-0.6-1.1-1.9-1.6-1.4c-2.7,2.4-1.4-0.8-1.9-1.3
	c-0.1-0.1-0.3-0.2-0.6-0.5c-0.8,1.6,0.8,3.6-1,4.8c0,0,0.1,0.4,0.1,0.4c1.6-0.3,2.4,1.5,4,1.6c1.6,0.2,3.2-0.1,4.8-0.1
	c0,0.3,0,0.6,0,0.8c-0.7,0.8-1.9,0.2-2.6,0.9c-0.5-0.7-1.1-0.4-1.7-0.5c-0.8,0.3-1.7-1-2.6,0h-0.8c-1.4-1-3.2-0.4-4.6-1
	c-1.8-0.7-3-0.9-3.9,0.9c0,0-0.1,0-0.2,0c-1.1-0.2-2,0.4-2.8,1.1c0.5,0.3,1.1,0.3,1.4,1c0.1,0.3,0.5,0.8,1.1,0.8
	c3.1-0.2,3.1-0.2,3.1,2.6c-1.3-0.2-2.7-1-4.2,0.3c1.2,0.1,2.1,0.7,3.1,0.5c0.9-0.2,0.5,0.6,0.6,0.9c-2.3,2,1.3,2.5,1.1,4.2
	c-1.5-0.6-2.4,0.3-3.2,1.4c-1.1-0.2-2.2-0.3-3.3-0.4c-0.9-0.1-1.5,0.2-1.4,1.3c0,0.1-0.1,0.1-0.1,0.2c0-0.1,0.1-0.1,0.1-0.2h0.4
	c0.3,1.3-0.5,2.3-0.8,3.4c-0.2,0.1-0.3,0.3-0.4,0.4c0-0.8-1.5-1.3-0.5-2.3c0.2-0.2,0.8,0.3,0.7-0.4c0-0.2-0.6-0.5-0.8-0.5
	c-0.7,0-1.1,0.5-1.5,1c-0.9,1-1.9,0.1-2.7-0.1c-1-0.2-0.2-1-0.3-1.5C-120.2,268-119.2,266.4-121.2,266.3 M-98.1,245.8
	c-0.1-0.1-0.2-0.1-0.2-0.2C-98.3,245.7-98.3,245.8-98.1,245.8c0,0.4-0.2,0.9,0.4,1.1c0.1,0,0.3-0.1,0.3-0.2
	C-97.4,246.2-97.8,246-98.1,245.8 M-104.4,253c0.7,0,1.2,0.1,1.6-0.6c0.2-0.5,0.1-0.9-0.1-1.2c-0.5-0.6-1.3-1.2-1.8-0.8
	c-1.1,0.8-2,0.3-3,0.1c-0.7-0.1-1.3,0.1-1.4,0.9c-0.1,0.8,0.5,1,1.2,1.2C-106.8,252.9-105.5,252.5-104.4,253 M-108.2,265.4
	c-0.1-0.4-0.4-0.5-0.7-0.6c-0.3-0.1-0.6-0.1-0.6,0.3c0,0.4,0.3,0.6,0.7,0.7C-108.5,265.8-108.3,265.8-108.2,265.4 M-115.8,268
	c0.1-0.2,0.3-0.3,0.4-0.5c-0.2-0.1-0.3-0.3-0.4-0.3c-0.2,0-0.3,0.2-0.4,0.4C-116.1,267.8-116,267.9-115.8,268 M-117.1,266.8
	c0-0.1,0.1-0.1,0.1-0.2c0,0-0.1,0-0.2-0.1c0,0.1-0.1,0.1,0,0.2C-117.2,266.8-117.2,266.8-117.1,266.8"/>
<path class="st5" d="M-122,227.9c0.1-0.6,0.2-1.1,0.9-1.1c2.9-0.2,3.4-1,2.5-3.6h2.5c-0.9-0.4-1.3-0.6-1.7-0.8
	c0.9-1.1,1.2-2.5,2-3.6c0.2-0.3,1.3-1.6-0.3-2c0-0.9,1-1,1.4-1.7c0.3-0.6,0.2-1.5,1.4-1.7c-0.7,1.4-0.6,2.6,0.1,3.8l-0.1,0.2
	c0-0.1,0.1-0.1,0.1-0.2h1.3c0,0.3,0,0.6,0,0.9v0c-1,0.4-0.9,1.3-0.9,2.1l0,0c-0.5,0.3-0.4,0.8-0.5,1.3c-0.1,0.1-0.3,0.2-0.4,0.3
	c-0.2,0-0.3,0.1-0.5,0.1c0-1.1-0.5-1.6-1.9-2.1c0.8,1.1,1.4,1.8,1.9,2.5v0.8c-0.2,0.1-0.4,0.2-0.5,0.3c0.2,0,0.4,0.1,0.6,0.2
	c1.2,0.3,0.9,1.9,2.1,2.1c0.4,2.3,2.4,3.5,3.3,5.5c-1.7,0.2-3.3-0.1-5-0.6c-2.9-0.8-5.7-1.6-8.6-2.4V227.9"/>
<path class="st3" d="M-88.4,263.3c0.8-0.3,0.9-0.9,0.8-1.7c0.3-0.2,0.4-0.5,0.4-0.9c1.7,0.3,1.6,1.9,2.3,3c0.5,0.7,0.8,1.8,2,1.6
	c1-0.2,1-1.3,1.2-2c0.4-1.3,0.3-2.6,0.9-3.8c0.2,0,0.3,0,0.5,0c0,1.1-0.1,2.3-0.1,3.4c-1.5,2.5-1.7,4.6-0.4,6
	c-0.6,0.7-0.1,0.8,0.4,0.9c-0.3,1.6,1.9,2.2,1.7,3.9c-1.3-0.2-2.2-0.8-2.9-1.9c-0.4-0.7-1.2-0.8-1.9-0.7c-3.2,0.6-6.5-0.6-9.7,0.4
	c-0.3,0.1-0.8-0.2-1.2-0.4c-1.2-0.3-1.7,0.5-2.1,1.3c-0.2-1.6-2-2.4-3.7-1.9c-0.6,0.2-1,1.3-1.8,0.6c-1.2-1.2-2.8-1-4.3-1.2
	c0.5-1.5,1.6-0.8,2.5-0.7c1.2,0.2,2.3,0.6,3.5-0.1c0.8-0.5,2-0.6,2.1-2.1c-0.1,2.1,0.8,2.8,2.6,2.5c0.2,0.1,0.3,0.3,0.5,0.3
	c3.3,0.1,6.7,0.4,10,0.7c1.7,0.2,2.2-0.7,1.5-2.4c-0.9-2.1-2.2-3.9-4.7-4.3V263.3"/>
<path class="st3" d="M-106.3,232.2c0.6-1.3,1.3-1.8,2.6,0.3c-0.1-1.6-0.6-2.6,0.4-3.3c0.1-0.1,0.3-0.5,0.2-0.5
	c-2.4-2.9-1-5.8,0.8-7.7c1.9-2,2.5-3.8,1.9-6.3c1,1.4,1,1.4,1.1,3.1c0.6-0.1,0.3-1,1.1-0.9c-0.1,1.3-0.1,2.6-1.1,3.6
	c-0.9,0.8-1.2,1.7,0.1,2.3c1.2,0.6,0.2,1.2,0.3,1.8c-0.4,0-0.7,0.1-0.9,0.5c-1.8,0.9-2.6,4.2-1.5,5.5c0,0,0.4-0.3,0.6-0.4
	c2,0.5,4.4,0.3,5.1,3c0,0.3,0,0.6,0,0.9c-0.4,0.2-0.7,0.2-0.8-0.4c-0.2-1.6-1.2-1.8-2.5-1.3c-2.5-0.8-3.2,0.6-3.6,2.7
	c-0.1,0.5-0.1,1.2-0.8,1.4C-104.3,234.9-105.3,233.5-106.3,232.2"/>
<path class="st8" d="M-87.1,260.7c0,0.4-0.1,0.7-0.4,0.9c-1.9-1.8-4-3.7-3.7-6.6c0.2-1.5,1-3,1.6-4.5c1.1-2.9,0.9-6,1.3-9
	c0.2-1.6-1.1-1.2-2-1.2c0.7-0.9,2.3-0.4,2.4-1.7c0.1-1.5,0.6-3.6-0.1-4.3c-1-0.9-1.6-2-2.5-3c-0.3-0.3-0.7-0.5-0.4-1.2
	c1.2,0.4,1.5,2,2.7,2.4c1.2-0.8,0.6-2.4,1.3-3.4c0.8-0.3,0.3,0.8,0.9,0.8c-0.3,1.7-1.1,3.3-0.8,5.1c-0.7,1.8,1.2,3.3,0.4,5.1
	c-0.1,0.2-0.3,0.3-0.4,0.5c-0.6,0.5-0.4,1.1-0.4,1.7c-0.1,1,0,1.9-0.4,2.9c-0.2,0.6-0.2,1.3,0.7,1.4c0,0.1,0,0.3,0,0.4
	c0,0.1,0,0.3,0,0.4c-1.6,0.8-0.8,2.7-1.7,3.9c-0.3,0.9-0.6,1.7-0.9,2.6c-0.6,1-0.8,1.9,0.3,2.7c0.9,0.6,0.3,2.3,1.9,2.4
	C-87.4,259.6-87.2,260.2-87.1,260.7"/>
<path class="st6" d="M-106.3,232.2c1,1.4,1.9,2.7,2.9,4.1c0.7-0.3,0.7-0.9,0.8-1.4c0.4-2,1.1-3.5,3.6-2.7c-2,1.1-3.1,2.8-3,5.1
	c-0.8,0.8-0.3,1.3,0.5,1.7c0.7,1.1,1.3,2.3,2.5,3.1c0,0.1,0,0.2,0,0.3c0,0.2,0,0.4-0.1,0.6c-0.1,0.7,0,0.8,0.5,0.3h0.5v0.8
	c-1.2,0.9-1.7,1.3-2.4-0.8c-0.7-2.1-2.3-4-4-5.6c-0.1-0.8-0.7-0.9-1.3-0.9c-0.5-0.5,0.3-1.3-0.4-1.7c-0.2-0.7-0.3-1.5-1.2-1.7
	c-0.2-0.6,0.2-1.6-0.9-1.7c0-0.1,0-0.3-0.1-0.4c-0.9-1.9-2.9-3.2-3.3-5.5c2.1,0.8,2.5,3.1,4,4.4
	C-107.2,230.7-106.8,231.5-106.3,232.2"/>
<path class="st5" d="M-100.7,255.2h0.8c0.9,0.5,1.7,1.8,2.6,0c0.6,0.1,1.3-0.2,1.7,0.5v0.8c-0.5,0-1.1,0.3-1,0.5
	c1.2,1.9-1.3,3.2-0.7,5c-1.6,0.2-3.1,0-4.7-0.4c0-1.3-1-2.5,0.1-3.8c-1.8-1.8,0.7-1.6,1.1-2.4C-100.8,255.3-100.8,255.3-100.7,255.2
	"/>
<path class="st5" d="M-95.6,233c-0.7-2.7-3.1-2.5-5.1-3c-0.4-1.8,0.6-3.4,0.8-5.1c0.2-0.4,0.5-0.4,0.8-0.5c0.3,2.6,1.1,0.7,1.9,0.1
	c0.3,1.7-0.4,3.4,0.3,5c0,0.1-0.1,0.1-0.1,0.2l0.1-0.2c0.5-0.1,1.1,0.2,0.9-0.8c-0.2-0.9,0.6-0.9,1.2-0.9l-0.4,4.3
	C-95.2,232.5-95.3,232.8-95.6,233"/>
<path class="st8" d="M-102,261.6c1.5,0.5,3.1,0.7,4.7,0.4c2.9,1.1,6,0.8,9,1.3v0.4c-1.3,0.2-2.5,0.7-3.8,0.5
	c-0.8-0.7-1.9-0.4-2.8-0.3c-2.1,0.1-4.1-1.4-6.2-0.1c-1.6-1.4-3.6-1.3-5.6-1.3c0.1-1.1,0.8-1.3,1.7-1.3h0.2h0.2h0.5h0.4
	c0.1,0.2-0.2,0.8,0.4,0.4H-102"/>
<path class="st8" d="M-95.6,233c0.3-0.2,0.4-0.5,0.4-0.8c0.3,0.3,0.6,0.6,0.8,0.8c0.2,1.4,0.4,2.9,0.9,4.2c0.4,0.9,0.5,2-1.2,1.8
	c-1.2-0.1-1.5,0.8-1.8,1.7c-0.3,1-0.7,2-1.7,2.6c-0.2,0-0.3,0-0.5,0c0-0.4-0.1-0.7-0.5-0.9c0-0.1,0-0.2,0-0.3c2.6-2.1,3-5.2,3.4-8.2
	C-95.6,233.6-95.6,233.3-95.6,233"/>
<path class="st3" d="M-94.4,233c-0.3-0.3-0.6-0.6-0.8-0.8l0.4-4.3c0.1-0.5,0.5-1.1,0.4-1.4c-1.6-2.3,0.9-4.3,0.6-6.5
	c-0.1-0.6,0.6-1,1.2-0.9c0.7,0.2,0.3,0.8,0.2,1.2c-0.9,2.4-1.3,4.7-0.1,7.1c0.1,0.1,0.2,0.3,0.2,0.4
	C-93.9,229.3-94.2,231.1-94.4,233"/>
<path class="st8" d="M-116.1,216.8c1.6,0.4,0.5,1.7,0.3,2c-0.9,1.1-1.2,2.5-2.1,3.6c-0.7-0.2-1.4-0.3-2.1-0.5v-1.3
	c1-1.2,2.9-1.7,2.6-3.8c0.1-0.4,0.3-0.9,0.4-1.3c-0.1-1.5,0.3-3,1-4.4c0.3,0.4,0.5,0.7,0.7,1c0.1,1-0.5,1.8-0.8,2.6
	C-116.4,215.4-116.9,216.1-116.1,216.8"/>
<path class="st4" d="M-87.1,229.2c-0.7,1,0,2.6-1.3,3.4c0.2-1.1-0.7-1.8-1.2-2.6c-0.5-0.7-0.8-1.5-0.6-2.4c0.1-0.5,0.1-1.1,0.7-1.2
	c0.8-0.1,0.5,0.6,0.7,1C-88.4,228.2-88.2,229.1-87.1,229.2"/>
<path class="st1" d="M-87.5,221.9c0.4-0.3,0.7-0.6,1.1-0.9c0.9,0.6,0,2.3,1.5,2.6c0.2,1.1-1.3,1.1-1.3,2.1
	C-87.3,224.7-87.7,223.4-87.5,221.9"/>
<path class="st6" d="M-111.8,225.8c-1.2-0.2-0.9-1.9-2.1-2.1c0-0.2,0-0.3-0.1-0.5v-0.8c0-0.2,0-0.3,0-0.4c0.2,0,0.3-0.1,0.5-0.1
	C-113.1,223.2-111.5,224.1-111.8,225.8"/>
<path class="st8" d="M-111.8,218.1c0-0.3,0-0.6,0-0.9c-0.2-1.3,1.4-2.1,1.1-3.4C-109.4,215.7-111.5,216.7-111.8,218.1"/>
<path class="st6" d="M-93.1,253.1h0.4c0.1,0.6,2.1,1.7-0.4,1.7c0-0.3,0-0.6,0-0.8V253.1"/>
<path class="st8" d="M-112.7,220.2c0-0.8-0.1-1.7,0.9-2.1C-111.8,218.9-111.7,219.8-112.7,220.2"/>
<path class="st8" d="M-113.1,221.5c0.1-0.5,0-1,0.5-1.3C-112.7,220.7-112.6,221.2-113.1,221.5"/>
<path class="st5" d="M-95.6,256.5l0.2,0.1C-95.5,256.5-95.6,256.5-95.6,256.5"/>
<path class="st9" d="M-80.3,269.7c-0.5-0.1-1.1-0.2-0.4-0.9c0.4-0.3,2.2,0.2,0.8-1.3c-0.6-0.6,0-1,0.6-1.2c0.9-0.2,1.7-0.5,2.9-0.5
	c-2,0.4,0.9-3-1.7-1.8c-1.4,0.7-1.6,0.4-1.4-0.9c0-0.1-0.5-0.2-0.7-0.3c0-1.1,0.1-2.3,0.1-3.4c1.6-2.1,1.3-4.7,1.3-7
	c0-1.1,1.3-1.5,0.9-2.1c-0.9-1.5,0-2.7,0.2-4c0.1-0.4,0-0.7-0.4-0.9c0-0.6,0-1.1,0-1.7c0.6-0.1,0.8-0.4,0.8-0.9c0-0.1,0-0.3,0-0.4
	c0.8,0.6,1.5,0.2,2.1-0.4c0.1-0.2,0.2-0.3,0.3-0.5c0,0-0.1-0.1-0.2-0.1c-0.1,0.2-0.1,0.4-0.2,0.6c-0.9-0.8-2.1,0.4-2.9-0.5
	c0-0.7,0-1.4,0-2.1c2-0.6,2-2.3,2.1-3.9c0.4-1.4,0.9-2.8,1.3-4.2c0.3,0,0.3,0.8,0.9,0.3c2.1-2,2.1-2,3.8,0.6c0.1,0.8,0.5,1,1,0.4
	c0.3-0.4,0.5-0.8,1.1-0.8c0,1-0.1,2.1,0.2,3.1c0.2,0.9,1,1.2,2,1.2c-0.3,1.6-1.9,2.6-2.1,4.3c-0.4,0.2-0.4,0.5-0.5,0.9
	c-0.9-0.3-1.9-0.8-2.7,0.2c-0.7,1-0.4,1.7,0.3,2.7c0.4,0.6,1.9,2,0.6,2.9c-2,1.3-1.6,3.1-1.6,4.8c-0.6,0.7-0.1,0.8,0.4,0.9h0
	c0.2,0.1,0.3,0.3,0.5,0.4l0,0c0,0.3,0,0.6,0,0.8c-2.8,0.5-3.2,1.3-1.5,3.6c0.7,0.9,0.8,1.9,0.4,2.7c-0.4,0.8-0.2,1.5-0.3,2.2
	c-0.2,0.1-0.4,0.3-0.3,0.6c0,0,0.2-0.1,0.3-0.1h0.8c0.1,0.9,1.1,1.1,1,2.4c-0.3,4.9-1.5,9.6-2.7,14.3l0,0c-1.3-0.4-2-2.2-3.8-1.7
	c-0.1-0.6,1.3-0.9,0.4-1.6c-0.6-0.7-1.3-1.3-0.1-2.1c0.6-0.5,0.4-0.7-0.2-1c-0.8-0.3-0.4-1.1-0.5-1.6c0.8,0,1.6-0.1,2-1.1
	c-1,0-1.6,0.4-2,1.1C-79,272.1-78.9,269.6-80.3,269.7"/>
<path class="st9" d="M-70,273.1c2.3-0.4,4.4-1.5,6.5-2.4c1.8-0.7,1.5-1,0.3-1.8c-0.1-0.1-0.1-0.4-0.4-0.9c0.9,0.5,1.5,0.9,2.1,1.3
	c0.7,1.3-0.1,2.6,0,3.9c0,0.1,0,0.2,0,0.4c-1.6,1.3-1.4,3.4-2.2,5.1c-0.3,0.7-1.8,1.8-0.7,3.1c0,0.3,0,0.6,0,0.9l0,0
	c-0.4,0-0.7,0.1-0.9,0.4c-0.2,0-0.5,0-0.7,0c0,0.5,0.4,0.4,0.6,0.5c0,0.4,0,0.9,0,1.3v0h-0.4c-1.5,0-2.4-1.3-3.6-1.5
	c-0.1-1,1.6,0.1,1-1c-0.4-0.6-0.2-1.3-0.4-1.6c-1.1-1.2,0.7-3.8-2.1-4C-71,275.3-70.5,274.2-70,273.1 M-64.6,276.9
	c0-0.1-0.1-0.1-0.1-0.2c0,0.1-0.1,0.1-0.1,0.2c0,0.1,0.1,0.1,0.1,0.2C-64.7,277-64.6,277-64.6,276.9"/>
<path class="st0" d="M-70,273.1c-0.5,1.1-0.9,2.2-0.9,3.4c-1.2,1-0.5,2.8-1.7,3.9c0-0.4-0.1-0.7-0.5-0.9c1.3-4.7,2.5-9.3,2.7-14.3
	c0.1-1.3-1-1.5-1-2.4c0.5,0,1.4,0.6,1.3-0.6c-0.2-1.7,0.6-3.2,0.7-4.9c0.1-1.3,0.3-2.9-1.5-3.5c0-0.3,0-0.6,0-0.8
	c1.1,0.4,1.4-0.1,1.7-1.1c1.3-3.6,1-7.2,0.8-10.8c0.1-0.4,0.1-0.7,0.5-0.9c0,2.1-0.2,4.4,2,6c-1.9,0.5-1.4,2.1-1.8,3.3
	c-0.5,1.7-0.8,3.4-1,5.2c-0.1,1.4,0.3,1.7,2.1,1.3c-2.5,1.9-2.2,4-2.2,6c0,0.6,0.1,1.1,0.9,1.2c-0.6,0.6-1.6,1-1.3,2.1
	c-0.1,1.1-0.3,2.3-0.4,3.4c0,0.1,0,0.3,0,0.4C-69.5,270.5-70.3,271.8-70,273.1"/>
<path class="st4" d="M-61.5,273.1c-0.1-1.3,0.7-2.6,0-3.9c0.3,0.1,0.7,0.4,0.8-0.2c0.2-1.2,0.7-2.3,1.1-3.4c0.2-0.5,0.6-1.3-0.6-1.3
	c-0.5,0-0.9,0.1-0.8-0.5c0-0.4,0.4-0.6,0.7-0.6c1.6,0,1.6-1.2,1.7-2.4c0.3-3.2,0.3-6.4,0-9.6c1.2-0.1,0.4,1.8,1.7,1.7l0,0
	c-0.7,0.9-1.2,5.9-0.6,6.9c0.3,0.5,0.8,0.4,1.1,0.3c2.1-0.6,4,0.4,5.9,0.9c-2-0.5-4.1,1-6.1,0.1c-0.2-0.1-0.9,0.1-0.9,0.3
	c-0.5,2-1,4-1.3,6c0,0.1,0.6,0.6-0.1,0.8c-1.4,0.5-1.4,1.8-1.4,2.8C-60.4,272.1-60.8,272.7-61.5,273.1"/>
<path class="st9" d="M-69.2,265.4c-0.3-1.1,0.7-1.5,1.3-2.1c1.6-0.6,2.3-2.3,3.8-3c0.1,0.7,0.6,1.4-0.6,2c-0.8,0.4-2.1,0.6-2.3,1.9
	C-67.8,264.5-67.6,266.5-69.2,265.4"/>
<path class="st9" d="M-69.6,269.2c0-0.1,0-0.3,0-0.4c1,0.1,2.1,0.3,3-0.4h0C-67.2,270.2-68.1,270.4-69.6,269.2"/>
<path class="st9" d="M-65.8,236c0.1-0.4-0.2-1.1,0.6-1.1c0.2,0,0.5,0.3,0.5,0.5C-64.7,236.2-65.3,235.9-65.8,236"/>
<path class="st4" d="M-58.6,247.5c0.7,1,0.7,1.4,0.1,3C-58.5,249.5-58.5,248.5-58.6,247.5"/>
<path class="st9" d="M-67,264.1c0.3,0.1,0.7,0,0.6,0.5c0,0.1-0.1,0.1-0.1,0.1C-67,264.8-67,264.5-67,264.1"/>
<path class="st9" d="M-66.6,268.4c0-0.1,0.1-0.1,0.1-0.2C-66.5,268.3-66.6,268.3-66.6,268.4"/>
<path class="st4" d="M-58.5,250.9v0.5C-58.8,251.2-58.8,251-58.5,250.9"/>
<path class="st9" d="M-64.1,260.3c0-0.1,0.1-0.1,0.1-0.2C-64,260.2-64,260.2-64.1,260.3"/>
<path class="st9" d="M-57.3,289.3c0.9-0.8,0.9-2.7,3.1-1.9c0.9,0.3,0.7-1.1,0.9-2.2c0.4,1.4,1.6,1.1,2.3,1.7
	c0.6,0.5,1.6-0.1,2.2,1.2c0.6,1.2,1.8-0.3,2.3-1.3c0.9,0.9,0.4,2,0.6,3.1c0.1,0.3-0.2,0.9-0.3,0.9c-2.1,0.2-1.9,2.1-2.5,3.3
	c-0.4,0.8-1.1,1.7,0.3,2.7c0.8,0.6,1.1,2-0.6,2.7c-0.8,0.3-1.7,0.7-2,1.7c-0.5,0.3-0.5,0.6,0,0.9c0.7,1.8,2.8,1.6,4.2,2.4
	c2.6,1.7,2.9,1.8,1.6,4.3c-0.5,1.1,0.5,1.3,0.7,1.9c-0.6,0.5-1.2,0.2-1.8,0.3c-1.3,1.2-1.4,3.2-2.5,4.6c-0.9-1-0.8-2.6-2.2-3.2
	c-0.4,1,0.8,1.9,0,2.9c-0.6-0.6-1.1-1.1-1.7-1.7c-0.3-1.5-0.6-2.9,0.2-4.9c-1.1,0.8-1.7,1.6-2.7,1.1v0c0-0.5-0.2-0.8-0.5-1.1
	c-1.8-1.7-2.7-4-3.7-6.1c0.3-0.2,0.3-0.3,0-0.5c-0.4-0.6-1.1-0.4-1.7-0.4c0-0.4,0-0.8,0-1.3c0.4-0.2,0.4-0.5,0.4-0.9h0.4
	c0.3-0.1,0.3-0.3,0-0.4c-0.8-0.7-0.3-1.4,0-2.1c0.3,0,0.6-0.1,0.9-0.1v-0.2c-0.3,0-0.6-0.1-0.9-0.1c0.3-0.6,0.5-1.1,0.4-1.7
	c0.8-0.8,1.3-1.9,2.5-2.1c0.5,1.3,1.2,2.5-0.6,3.5c-0.5,0.3-0.4,1.2,0.3,1.7c0.7,0.5,0.6-0.4,0.9-0.6c2-1.9,1.4-3.6-0.2-5.3
	c1.2-0.9-0.4-1.1-0.4-1.7C-57.3,289.9-57.3,289.6-57.3,289.3L-57.3,289.3z M-51.1,302.8c-1.3,1-1,1.9-0.8,3.2
	C-51.6,304.8-51.5,304.1-51.1,302.8 M-58.1,301.6l0.2-0.1c0,0-0.1-0.1-0.1-0.1c-0.1,0-0.1,0.1-0.2,0.1L-58.1,301.6z M-52.6,307.6
	c0,0-0.1-0.1-0.1-0.1c0,0-0.1,0.1-0.1,0.1c0.1,0.1,0.1,0.1,0.2,0.2L-52.6,307.6z"/>
<path class="st4" d="M-57.3,292.7c-1.2,0.3-1.7,1.4-2.5,2.1c-1.7,0.8-1,2.9-2.3,4c-0.6-0.5-0.7-1.2-0.7-1.9c0.2-0.5,0.3-1.1,0.7-1.5
	c2.7-3.3,4.1-7.3,5.3-11.3v-0.4h0c0.8,0,0.8-0.6,0.8-1.3v-0.9c0.1-0.1,0.3-0.3,0.4-0.4c0.4-0.3,0.6-0.9,1.2-0.9l0,0
	c-0.3,2.3,1.4,1.6,2.5,1.7l0,0c-3.9,0.8-5.4,3.5-5.6,7.2c-0.2,0.2-0.5,0.3-0.6,0.5c-0.1,0.4,0.3,0.3,0.6,0.4c0,0.6,1.6,0.8,0.4,1.7
	C-57.1,292-57.2,292.3-57.3,292.7"/>
<path class="st7" d="M-50.9,315.3c0.8-0.9-0.4-1.8,0-2.9c1.4,0.6,1.2,2.2,2.2,3.2c1.2-1.5,1.2-3.4,2.5-4.6c0.1,0.7-0.3,1.4-0.6,2
	c-0.6,1.3-0.6,1.3,0.9,1.7c1,0.3,1.1,1.4,1.2,2.2c0.3,1.3,0.5,2.7,0.8,4.1c-1.1-0.6-0.8-1.7-1.2-2.5c-0.3-0.6-0.3-1.8-1.3-1.5
	c-0.9,0.3-1.4,1.2-0.8,2.3c0.1,0.2,0.1,0.5,0.2,0.8c-1.4-1-1.8-3.1-3.8-3.4C-50.9,316.2-50.9,315.7-50.9,315.3"/>
<path class="st4" d="M-52.5,276.5c-0.7,1.2-0.4,2.9-1.7,3.9l0,0c0.6-2.2,0.2-4.7,2.1-6.4C-52.3,274.8-52.4,275.6-52.5,276.5"/>
<path class="st9" d="M-46.9,291.7c0.4,1.4,3.9,0.4,1.2,2.9C-46,293.9-47.1,293.6-46.9,291.7"/>
<path class="st7" d="M-43.2,325.1c-0.8,0-1-0.7-1.3-1.2c-0.1-0.9,0.3-1.4,1.3-1.9V325.1z"/>
<path class="st9" d="M-52.5,276.5c0.1-0.8,0.3-1.7,0.4-2.6h0.2h0.2v3C-52.1,276.9-52.4,276.8-52.5,276.5"/>
<path class="st9" d="M-46,298.5c-0.1,0.1-0.2,0.2-0.4,0.2c-0.1,0-0.2-0.1-0.3-0.2c0.1,0,0.2-0.2,0.3-0.1
	C-46.2,298.3-46.1,298.4-46,298.5"/>
<path class="st4" d="M-51.7,282c0.2-0.3,0.5-0.4,0.8-0.3c0,0,0.1,0.1,0.1,0.2C-51.1,281.9-51.4,282-51.7,282L-51.7,282z"/>
<path class="st4" d="M-50.8,302.1c-0.5-0.3-0.5-0.6,0-0.9V302.1z"/>
<path class="st7" d="M-45.5,320.7c0,0.1,0.1,0.1,0.1,0.2c0,0-0.1,0.1-0.1,0.1C-45.5,320.9-45.5,320.8-45.5,320.7"/>
<path class="st1" d="M-69.6,311.1c-0.8-0.1-1.6,0.4-2.5,0.3c-1-0.1-2.2,0.3-1.9,1.9c-0.8-4-4.6-1.5-6.5-3c0.2-0.7,0.7-0.6,1.1-0.5
	c1.4,0.4,2.6,0.8,2.2-1.5c-0.1-0.3,0.3-0.6,0.7-0.9c1.8-1,1.9-2.5,0.4-4.1c0.5-0.5,0.5-0.6-0.2-1.1c-0.8-0.5-1.7-1-2.2-0.2
	c-0.7,1.1-1.5,0.8-2.4,0.9c-1.1,0-2.3,0-3.4,0h-0.5c-1.2-0.5-2.5-0.4-3.8-0.5c-1.4-0.1-3,0.4-4.3-0.4c0.4-0.9-0.8-1-0.8-1.7
	c1.2-1,2.3,0.1,3.5,0.1c0.4,0,1.1,0.1,0.9-0.2c-0.9-1.5,0.6-1.2,1.1-1.5c1.2-0.6,2.4-1.1,2.7-2.6c1.5,0.9,2.8-1.1,4.3-0.4
	c0.4,1-1.2,1.7-0.5,2.9c0.6-0.7,1-1.2,1.4-1.7c3.4-0.6,6.6,0.6,9.7,1.7l0.8,0.9c0.5,0.6,0.8,0.1,1.2-0.1c1.7-0.6,3.5-0.8,4.7,0.6
	c0.8,1,1.7,1.8,2.6,2.5c0.3,0.6-1.1,1.7,0.5,2.1c0.1,1.7,0.4,3.4,2.1,4.3c0.3,0.2,0.6,0.5,0.6,0.8c0,0.5-0.5,0.4-0.8,0.5
	c-2,1.1-4.1,0.8-6.3,0.8c-0.1,0-0.2,0-0.3,0C-67.2,309.6-68.3,309.6-69.6,311.1"/>
<path class="st1" d="M-51.7,321.3c-0.1,0.6-0.4,1-1,0.5c-0.6-0.5-1.1-1-1.8-1c-2.7,0.1-4-1.2-4.5-3.7c0.6,0,0.8-0.3,0.9-0.9
	c1.5,0.2,1.9-0.6,1.9-2.2c-0.8,0.9-1.3,1.6-1.9,2.2c-0.6,0-0.8,0.3-0.9,0.9c-2.2-0.9-4.8-1.3-6-3.9c0.5-1.5,1.7-1.3,2.8-1.2
	c1.7,0.2,3.3,0.5,4.9,0.8c0.1,0,0.3,0,0.4,0h0.8c0.1,0.5,0.3,0.9,0.9,0.9c0.5,0.6,1.1,0.3,1.7,0.4h0c0,0.9-0.1,1.9,1.3,1.7
	c0.2,0.3,0.3,0.6,0.5,0.8C-52.1,318.1-51,319.7-51.7,321.3"/>
<path class="st9" d="M-85.4,296.1c-0.3,1.5-1.5,2-2.7,2.7c-0.5,0.2-2-0.1-1.1,1.5c0.2,0.3-0.5,0.3-0.9,0.3c-1.2,0-2.3-1.1-3.5-0.1
	h-0.9c-0.1-0.6,0.8-1.3-0.2-1.8c-0.9-0.5-1.1,0.3-1.4,0.7c-0.2,0.2-0.3,0.5-0.5,0.7h-0.8c-0.7-0.9,0.1-1.5,0.5-2.2
	c1-0.6,1.8-1.4,2.1-2.5c0.4,0,0.7-0.1,0.8-0.5c0.1-0.1,0.3-0.3,0.4-0.4c0.8-0.1,1.5-0.1,2.3-0.3C-89.4,293.8-86.1,294.9-85.4,296.1"
	/>
<path class="st9" d="M-56,312.8h-0.8c-0.1-0.2-0.3-0.3-0.4,0c-1.6-0.3-3.3-0.6-4.9-0.8c-1.1-0.1-2.3-0.3-2.8,1.2
	c-0.6,0.2-1,0.9-1.7,0.9l0,0c0-1.1,1.4-1.4,1.3-2.5c0.1-0.1,0.2-0.3,0.4-0.4c2.1,0,4.3,0.4,6.3-0.7c0.3-0.2,0.8-0.1,0.8-0.5
	c0-0.3-0.3-0.6-0.6-0.8c-1.8-0.9-2-2.6-2.1-4.3c1.4,0.7,2.2,1.9,2.9,3.2c0.6,1.2,1.4,1.9,2.7,1.9c0.1,0.6-0.2,1.2,0.4,1.7
	C-54.6,312.4-55.7,312.2-56,312.8"/>
<path class="st4" d="M-84.1,302.9c1.1,0,2.3,0,3.4,0c0.8,0,1.7,0.2,2.4-0.9c0.5-0.8,1.4-0.3,2.2,0.2c0.7,0.5,0.7,0.6,0.2,1.1
	c-1.3-0.2-1.5,0.8-2,2.2c0.1-2.2-1.2-1.7-2.1-1.9c-1.7-0.3-3.1,0.4-4.7,0.9c-0.3,0.1-0.5,0.3-0.7,0.1c-2.1-1.8-4.8-1.8-7.3-2
	c-0.3,0-0.6-0.2-1-0.4c0.4-0.6,0.9-0.2,1.3-0.3c1.4,0.8,2.9,0.3,4.3,0.4c1.3,0.1,2.5,0,3.8,0.5C-84.4,303.2-84.2,303.2-84.1,302.9"
	/>
<path class="st7" d="M-51.7,321.3c0.7-1.6-0.4-3.2,0-4.7c0.3,0,0.5,0,0.8,0c0.2,1.2,1.3,1.8,1.8,2.8c0.4,0.7,1,1.4,0.4,2.3
	c-0.6,0-1.3,0-1.3,0.8C-51,322.7-50.7,321.2-51.7,321.3"/>
<path class="st1" d="M-96.9,297.8c-0.4,0.7-1.2,1.3-0.5,2.2c-0.6,0.7-1.5,0.2-2.2,0.5v0c0.3-1,0-1.9-0.9-2.3
	c-0.6-0.3-0.8-0.6-0.7-1.2c0.8,0.3,1.7,0.3,2.5,0C-98.5,298.1-97.5,297.7-96.9,297.8"/>
<path class="st9" d="M-69.6,311.1c1.3-1.5,2.4-1.5,4.3,0c0,0.1,0,0.3,0,0.4C-66.8,311.5-68.2,310.8-69.6,311.1"/>
<path class="st1" d="M-96.5,300c0.2-0.2,0.3-0.5,0.5-0.7c0.4-0.4,0.5-1.2,1.4-0.7c1,0.6,0.1,1.2,0.2,1.8
	C-95.1,300.3-95.9,300.7-96.5,300"/>
<path class="st9" d="M-66.6,314l-0.2,0.2C-66.8,314.1-66.7,314.1-66.6,314L-66.6,314z"/>
<path class="st5" d="M-108.4,231.7c1.1,0.2,0.8,1,0.9,1.7c-0.6,0.3-1.7,1-1.4,1.3c1.6,1.2-0.3,1.7-0.4,2.8c0.8-0.2,1.5-0.8,2.1-0.2
	v1.7c-4.5,1.9-7.7-1.3-11.9-2.7c1.1-0.5,1.6-0.6,2.1-0.9c0.5-0.3,1.1-0.5,0.7-1.3c-0.3-0.6-1-0.9-1.4-0.6c-1.1,0.9-2.6,0.9-3.5,2
	c-0.6,0.4-1.2,1.2-2.1,0.4c0.8-0.5,1.2-1.6,2.3-1.8c0.1,0,0.1,0,0.2-0.1c0.2-0.2,0.5-0.6,0.4-0.7c-1.1-1.2,0.6-2.6-0.3-3.8
	c2.9,0.6,5.7,1.8,8.7,2.2C-110.8,232.1-109.6,232.3-108.4,231.7"/>
<path class="st0" d="M-127.6,210.4c1.6-1.5,3.6-0.2,5.3-0.9c0.2-0.1,0.5-0.3,0.7-0.4c0.9,0.8,2.1,1.5,2.1,3
	c-0.2,0.1-0.3,0.3-0.5,0.4c-0.7-0.2-1.4-0.3-2-0.5c-0.8-0.3-1.5-0.4-1.1,0.8c0.1,0.4,0.2,0.7-0.3,0.8c-0.5,0.2-0.5-0.5-0.6-0.6
	C-125.4,212.5-126.8,211.8-127.6,210.4"/>
<path class="st8" d="M-108.4,231.7c-1.2,0.6-2.4,0.4-3.7,0.2c-3-0.5-5.7-1.7-8.7-2.2c-0.6-0.3-1-0.7-1.3-1.3
	c2.9,0.8,5.7,1.6,8.6,2.4c1.6,0.5,3.3,0.8,5,0.6C-108.5,231.4-108.4,231.6-108.4,231.7"/>
<path class="st8" d="M-128.5,228.3c1.6-1.2,2.2-3.5,4.3-4.3l0,0c0,0.9-1.3,1.6-0.3,2.6c0.1,0.1,0.1,0.8-0.2,0.7
	C-126.2,226.7-127,228.9-128.5,228.3L-128.5,228.3z"/>
<path class="st8" d="M-123.3,236c0.9,0.7,1.5,0,2.1-0.4c0.9,1-0.6,2,0,3c-0.4,0-0.8,0-1.3,0l0,0c0.2-1.4-0.8-1.8-1.9-2.1
	c-0.4-0.1-1.1,0.3-1.2-0.5c0-0.2,0.1-0.4,0.3-0.6c0.5-0.4,1-0.4,1.5,0.2C-123.7,235.7-123.5,235.8-123.3,236"/>
<path class="st8" d="M-127.2,240.7v-1.3c1.6,0.1,3.1-0.8,4.7-0.8l0,0c0,0.3,0,0.6,0,0.8c-0.4,0-0.7,0.1-0.9,0.4
	C-124.6,240-125.8,240.9-127.2,240.7"/>
<path class="st0" d="M-122.9,221.5c-0.8-0.2-1.2-0.6-0.4-1.2c0.5-0.3,1.1-0.6,1.5-1.1c0.3-0.4,0.6-0.9,0.9-1.4
	c0.4,1.2,0.4,1.2-1.6,3.7H-122.9"/>
<path class="st6" d="M-116.9,215.5c-0.1,0.4-0.3,0.9-0.4,1.3c-0.4,0-0.9,0-1.3,0c-0.9-0.1-1.9,0.2-2.9-0.9c2.5,0.8,3.2,0,2.5-2.1
	C-117.9,213.8-118.3,215.8-116.9,215.5"/>
<path class="st5" d="M-118.6,216.8c0.4,0,0.8,0,1.3,0.1c0.4,2.1-1.6,2.6-2.6,3.8C-120.6,219-118.3,218.3-118.6,216.8"/>
<path class="st6" d="M-119.9,221.9c0.7,0.2,1.4,0.3,2.1,0.5c0.4,0.2,0.8,0.4,1.7,0.8h-2.5c-0.4-0.5-1.1-0.2-1.5-0.5
	C-121,222.2-120.5,222-119.9,221.9"/>
<path class="st6" d="M-120,212.5c0.2-0.1,0.3-0.3,0.5-0.4c1.5,0.2,0.3,1.1,0.4,1.7C-120,213.8-119.9,213.1-120,212.5"/>
<path class="st0" d="M-124.2,223.2c-0.4-0.1-0.9-0.2-0.7-0.7c0-0.2,0.3-0.4,0.4-0.4c0.6,0.1,0.7,0.5,0.8,1
	C-123.9,223.2-124.1,223.2-124.2,223.2"/>
<path class="st8" d="M-124.2,223.2c0.1,0,0.3,0,0.4-0.1c0.2,0.1,0.6,0.3,0.6,0.4c-0.1,0.5-0.6,0.5-1,0.6l0,0
	C-124.2,223.8-124.2,223.5-124.2,223.2"/>
<path class="st8" d="M-128.4,228.3c-0.1,0.3-0.1,0.6-0.4,0.6c-0.1,0-0.2-0.2-0.2-0.3C-129.1,228.4-128.7,228.4-128.4,228.3
	L-128.4,228.3z"/>
<path class="st8" d="M-129.7,230.4c0.1-0.3,0.1-0.7,0.5-0.6c0,0,0.1,0.1,0.1,0.1C-129.1,230.4-129.4,230.4-129.7,230.4L-129.7,230.4
	z"/>
<path class="st8" d="M-122.5,227.9c-0.3-0.1-0.6-0.1-0.9-0.2c0,0,0.1-0.1,0.1-0.2C-122.9,227.4-122.7,227.6-122.5,227.9
	L-122.5,227.9z"/>
<path class="st8" d="M-129.7,224.9c0.1-0.1,0.1-0.1,0.2-0.2C-129.6,224.8-129.7,224.9-129.7,224.9L-129.7,224.9z"/>
<path class="st8" d="M-122,227.9v0.4c-0.2-0.1-0.3-0.3-0.4-0.4l0,0H-122"/>
<path class="st8" d="M-127.6,215.5c0-0.1,0.1-0.1,0.1-0.2C-127.5,215.4-127.6,215.5-127.6,215.5L-127.6,215.5z"/>
<path class="st8" d="M-122.9,221.5h0.4C-122.6,221.8-122.8,221.8-122.9,221.5"/>
<path class="st1" d="M-52.1,273.9c-1.9,1.7-1.5,4.2-2.1,6.4c-0.7-0.1-0.8,0.6-1.3,0.9c-0.2,0-0.3,0-0.4,0c-0.1-0.4-0.1-0.9-0.7-0.6
	c-0.1,0.1-0.2,0.3-0.3,0.5c0.3,0.1,0.6,0.1,1,0.2v0.4v0.9c-0.9,0-0.9,0.6-0.8,1.3c-0.3,0.1-0.3,0.3,0,0.4c-1.2,4-2.6,7.9-5.3,11.3
	c-0.4,0.4-0.5,1-0.7,1.5c-1.2-1.6-3.5-2.2-3.7-4.6c0-0.2-0.4-0.3-0.6-0.5c-0.3-1.4,0.1-2.7,0.7-4c0.3-0.6,1-1.3,0.2-2
	c0.1-0.2,0.3-0.4,0.4-0.6c0.2-0.2,0.3-0.4,0.5-0.6h0c1.1-0.4,1.1-1.2,0.9-2.1l0,0c0.6,0,0.8-0.3,0.8-0.8c0.2-1.4,1.4-1.9,2.5-2.8
	c-1-0.2-1.7-0.4-1-1.5c0.7-1.2,0.8-2.5,0.7-3.9c0-0.1,0-0.2,0-0.4c0.7-0.5,1.1-1,1.1-2c0-1,0.1-2.3,1.4-2.8c0.7-0.3,0.1-0.7,0.1-0.8
	c0.3-2,0.8-4,1.3-6c0.1-0.2,0.7-0.4,0.9-0.3c2.1,0.9,4.1-0.6,6.1-0.1c0.1,1,0.1,1,1.3,1.1c0.6,0.1,0.6,0.5,0.4,1.1
	c-0.4,1.4-0.4,1.4,1.1,1.2c0,0.4-0.2,0.7-0.6,0.8c-2.6,0.6-1.7,2.7-1.8,4.3c0,0.7,0.4,1,1.1,0.7c0.6-0.2,1.4-0.5,1.4,0.4
	c0,0.5-0.6,1.5-1.6,1.3c-0.7-0.1-1.4-0.2-2.1-0.2c-0.5,0.1-0.5,0.5-0.5,0.9c0,0.1,0,0.2,0,0.4C-52.1,273.3-52.1,273.6-52.1,273.9
	 M-61.3,280.3c0.6,0.9-0.3,1.7,0.6,2.1c0.4,0.2,0.9-0.1,1-0.5C-59.4,281-60,280.7-61.3,280.3"/>
<path class="st4" d="M-54.3,259c0,0.1,0,0.1-0.1,0.2c-0.1-0.1-0.1-0.1-0.2-0.2c0,0,0.1-0.1,0.1-0.1C-54.4,258.9-54.4,258.9-54.3,259
	"/>
<path class="st4" d="M-52.1,273.9c0-0.4,0.1-0.7,0.4-0.9v0.9h-0.2H-52.1z"/>
<path class="st4" d="M-51.7,272.7c0-0.4,0.1-0.8,0.5-0.9C-51.3,272.1-51.5,272.4-51.7,272.7"/>
<path class="st4" d="M-56.8,253c0.1-0.1,0.1-0.1,0.2-0.2C-56.7,252.9-56.7,253-56.8,253L-56.8,253z"/>
<path class="st9" d="M-69.7,299.5c-0.3-0.3-0.6-0.6-0.8-0.9c0-0.6-0.1-1.1-0.8-1.2c-4.2-1-8.4-2-12.6-3c-0.7-0.2-1.4-0.4-1.5-1.3
	c-0.1-0.4,0.5-1.2-0.2-1.3c-1.8-0.3-3.6-1.5-5.4,0c-1,0.4-1.6-0.7-2.5-0.7c-3.1,0-5.8-1.6-8.7-2.5c-1.9-0.6-3.8-1.5-5.8-1.5
	c0-0.5-0.1-1-0.4-1.4c-0.8-1.1,0-1.1,0.8-1.1c0.3,0.6,0.7,0.8,1.3,0.8c0.1,0.3,0.1,0.7,0.6,0.8c0.6,0.1,0.7-0.4,0.7-0.8
	c0.1,0,0.3,0,0.4,0c0.6-0.1,1.3,0.6,1.7,0.5c1.5-0.2,2.7,2,4.3,0.4c1,0.7,2,0.2,3,0c0.3,1.9,1.4,2,2.7,1.1c0.7-0.5,1.2-0.5,2-0.1
	c1.9,0.8,3.8,1.7,5.9,1.3c1.4-0.2,2.8-1.1,3.8,0.6c0.1,0,0.1,0.1,0.2,0.1c-0.1,0-0.1-0.1-0.2-0.1c0.3-1.5,0.6-2.9,1.9-3.9
	c0.6-0.5,0.6-1.1,0.2-1.7c0.6,0,1.2-0.1,1.7,0c1.9,0.5,4.4,0,4.9,2.7c0.3,1.7,1.4,2.3,2.6,2.9c-0.3,1.8,1.1,2.5,2.2,3.4
	c0,0.7,0.1,1.4,0.5,2c0.6,1.1,1.2,2.1,1.8,3.2c-1.3,0.5-2.6,0.1-4,0.2c-0.1-0.1-0.3-0.2-0.5-0.3c0,0-0.1,0.1-0.1,0.1
	c0.2,0.1,0.4,0.1,0.5,0.2C-69.2,298.7-69.1,299.3-69.7,299.5"/>
<path class="st4" d="M-81.1,289.3c-1-1.7-2.4-0.9-3.8-0.6c-2.1,0.3-4.1-0.6-5.9-1.4c-0.9-0.4-1.3-0.3-2,0.2
	c-1.4,0.9-2.5,0.7-2.7-1.1c0.3,0.1,0.8,0.3,0.9,0.2c1.4-1.5,3.1-2.4,5-2.9c0.4-0.1,0.6-0.7,0.8-1.1c3.3,0,6.6,0.6,9.8,1.3
	c0.4,0.6,0.4,1.2-0.2,1.7C-80.5,286.4-80.8,287.8-81.1,289.3L-81.1,289.3z"/>
<path class="st3" d="M-79,283.8c-3.2-0.7-6.5-1.3-9.8-1.3c-1.6-0.7-3.1-0.8-4.4,0.6c-0.4-1.1-0.8-2.1-2.3-1.6
	c-0.5,0.2-1.1,0.1-1.7,0.1c-1.1,0.1-2.5-1-3,1c0,0-0.6-0.1-1-0.1v0c0-0.9,0.2-1.9-1.4-1.4c-0.4,0.2-1-0.2-1.6-0.3
	c0-0.6,0.3-0.8,0.9-0.6c0.8,0.2,1.5-0.2,1.6-1.1c0.4,0,0.7-0.1,0.8-0.4c0.5,0.6,1.2,1,1.9,1.1c2.5,0.4,5,0.7,7.5,1
	c1.5,1,3.2,0.1,4.6,0.6c2.8,0.9,5.7,1.3,8.6,1.8c3.2,0.6,3.7,0.2,2.9-2.4l0,0c1.5,0.9,1.6-0.5,2.1-1.3l0,0c0.4,0.2,0.4,0.5,0.5,0.9
	c0,1,0,2,0,3H-73c-0.1-0.1-0.1-0.1-0.2-0.2c0.1,0.1,0.1,0.1,0.2,0.2c0.2,0.3,0.3,0.3,0.4,0c0.4,0,0.8,0,1.2,0.1c0,0.1,0,0.2,0,0.4
	v0.9c-0.8,0.1-0.8,0.5-0.5,1.1c0.3,0.6,0.6,1,1.4,0.6c0.2,0.1,0.3,0.3,0.5,0.4c-1.4,1.1,0.7,1.6,0.4,2.6l-0.1,0.1
	c-1.2-0.6-2.3-1.2-2.6-2.9c-0.5-2.7-3.1-2.2-4.9-2.7C-77.8,283.6-78.4,283.8-79,283.8"/>
<path class="st3" d="M-121.2,266.3c2,0.1,1,1.7,1.2,2.7c0.1,0.5-0.7,1.3,0.3,1.5c0.9,0.2,1.9,1.1,2.7,0.1c0.4-0.5,0.9-1,1.5-1
	c0.3,0,0.8,0.3,0.8,0.5c0.1,0.6-0.5,0.2-0.7,0.4c-1,1,0.5,1.5,0.5,2.3c0.3,0.7,1.7,0.4,1.4,0.8c-1,1.7,0.7,2.1,1.2,3
	c0,0.3,0,0.6,0,0.8c-1.8-0.7-3.5-1.9-5.5-0.8c-0.9-1.6-1.7-3.3-2.8-4.9c-1-1.5-2.6-2.7-0.7-4.5
	C-121.1,266.9-121.2,266.6-121.2,266.3"/>
<path class="st5" d="M-127.2,240.7c1.4,0.2,2.5-0.7,3.8-0.8c0.7,2-1.4,2.3-2.4,3.6c1.2,0.3,3.4-0.6,2.4,1.9c2,0,1,1.8,1.7,2.7
	c-0.2,0.3-0.5,0.4-0.9,0.3c-0.3-0.1-0.5-0.2-0.8-0.3c-0.2-0.4-0.5-0.5-0.9-0.4c-1.2-1.6-3.3-2.7-3.4-5.1c0-0.2,0-0.3,0-0.5v-0.8
	C-127.5,241-127.3,240.8-127.2,240.7"/>
<path class="st6" d="M-122.5,248.3c0.4,0.1,0.7,0,0.9-0.3c0.4,0,0.8,0,1.2,0c0,0.1,0,0.2,0,0.4c0.3,0.8,1,0.9,1.7,0.9
	c0.9,0,1.7,0,2.5,0.7c0.6,0.6,1.5,0.7,2.3,1c0.7,0.3,1.5,0.4,2.2,0.8c-0.9-0.4-1.7,0.7-2.5-0.1c-0.6,1-2.3-0.5-2.7,1.2
	c-0.1,0.2-1,0.8-1.5,0.3c-0.6-0.7,0.2-0.9,0.7-1.2c0.4-0.3,0.9-0.5,0.7-1.1c-0.2-0.5-0.7-0.8-1.2-0.7c-1,0.3-2-0.9-3-0.1
	c-0.1,0-0.2,0.1-0.4,0c0-0.7-0.2-1.2-1-1.2C-122.6,248.6-122.5,248.4-122.5,248.3"/>
<path class="st8" d="M-112.3,277.4v-0.8c3.7,0.4,6.9,2.7,10.7,2.5c-0.2,0.9-0.8,1.3-1.6,1.1c-0.6-0.2-0.9,0-0.9,0.6h0h-0.4
	c-0.7-0.4-1.4-0.9-2.1-1.3c0-1-0.9-0.4-1.3-0.8c-1,0-2,0-3,0l0,0c-0.1-0.1-0.3-0.3-0.4-0.4c-0.3,0-0.6,0-0.8,0v-0.5V277.4"/>
<path class="st3" d="M-122.5,260.3c1.4,0.1,2.2,1.4,3.4,1.9c0.5,0.2,0,0.6-0.3,0.8c-0.5,0.4-1,0.8-1,1.5h-0.5c-0.2,0-0.3,0-0.5,0
	c-1.2,0-1.9-0.9-2.3-1.8C-124,261.7-122.3,261.4-122.5,260.3"/>
<path class="st4" d="M-98.6,286.3c-1.5,1.7-2.8-0.5-4.3-0.4c-0.4,0-1-0.6-1.7-0.5c0.6-1.2,1.6-0.8,2.6-0.7c0.9,0.1,1.5,1.3,2.7,0.1
	C-98.7,284.3-98.7,285.7-98.6,286.3"/>
<path class="st3" d="M-122.5,257.3c0,0.9,0.6,1.2,1.3,1.5c-0.4,0.5-0.9,0.2-1.4,0.3c-1-0.6-1.5-1.9-2.9-2.3
	c-0.8-0.3,0.7-1.1,0.3-1.9l0,0c1.4-0.5,2.1,0,2.1,1.4C-122.9,256.6-122.9,257-122.5,257.3"/>
<path class="st5" d="M-112.3,277.4v0.4c-0.7,0.1-1.3,0.3-1.7,0.9c-1.6-0.1-2.8-1-3.8-2.1C-115.8,275.5-114,276.6-112.3,277.4"/>
<path class="st3" d="M-104.6,280.8h0.4c0.3,0.6-0.7,1.7,0.8,1.7c0,0.3,0,0.8-0.2,1c-0.3,0.3-1.1,0.7-1.3,0.3
	c-0.5-1.2-2.5-0.2-2.6-1.8c0-0.5,0.4-0.7,0.9-0.6C-105.7,281.4-105.1,281.3-104.6,280.8"/>
<path class="st8" d="M-127.6,241.1v0.8c-0.3,0.2-0.3,0.3,0,0.5c0.1,2.4,2.2,3.4,3.4,5.1c-2.4-0.7-4.1-2.1-4.2-4.8
	C-128.4,242.1-128.7,241.2-127.6,241.1"/>
<path class="st8" d="M-122.6,248.8c0.8,0,1,0.5,1,1.2c-2-0.1-3.2,1.2-4.3,2.6c0.8-1.2-1-1.3-0.9-2.3
	C-124.9,251.2-124.1,249.3-122.6,248.8"/>
<path class="st5" d="M-112.3,278.2c0.3,0,0.6,0,0.8,0c0.2,0.1,0.3,0.3,0.4,0.4l0,0c-0.7,1.5-2.5,0.6-3.4,1.6c-0.7-0.6,0-0.9,0.4-1.2
	C-113.3,279-112.7,278.8-112.3,278.2"/>
<path class="st3" d="M-108,278.6c0.3,0.4,1.3-0.2,1.3,0.8c-0.2,0.4-0.4,0.9-0.9,0.7C-108.3,279.9-107.9,279.1-108,278.6"/>
<path class="st3" d="M-112.3,278.2c-0.5,0.6-1,0.8-1.7,0.8v-0.4c0.4-0.6,1-0.8,1.7-0.9V278.2"/>
<path class="st4" d="M-105,285.4c-0.1,0.4-0.2,0.8-0.7,0.8c-0.5-0.1-0.5-0.4-0.6-0.8C-105.8,285.3-105.4,284.8-105,285.4"/>
<path class="st8" d="M-123.9,259.9c0.4,0.1,0.6,0.3,0.4,0.6c-0.1,0.2-0.3,0.2-0.5,0.3c-0.1-0.2-0.3-0.5-0.3-0.7
	C-124.3,260.1-124,260-123.9,259.9"/>
<path class="st8" d="M-125.9,253.5c-0.3-0.1-0.7-0.1-0.6-0.5c0-0.1,0.4-0.2,0.6-0.3V253.5z"/>
<path class="st3" d="M-122.2,266.7c-0.1,0.1-0.2,0.1-0.3,0.2c-0.1-0.1-0.2-0.3-0.3-0.4c0.1-0.1,0.2-0.2,0.3-0.1
	C-122.4,266.5-122.3,266.6-122.2,266.7"/>
<path class="st3" d="M-125.5,254.4c-0.4-0.2-0.4-0.5-0.4-0.9C-125.5,253.7-125.5,254-125.5,254.4L-125.5,254.4z"/>
<path class="st8" d="M-124.2,247.5c0.4,0,0.7,0.1,0.9,0.4C-123.7,247.9-124,247.9-124.2,247.5"/>
<path class="st3" d="M-101.2,282.5c0,0.1-0.1,0.1-0.1,0.2C-101.2,282.6-101.2,282.5-101.2,282.5"/>
<path class="st3" d="M-125.1,254.8c-0.1-0.1-0.3-0.3-0.4-0.4l0,0C-125.3,254.5-125.2,254.6-125.1,254.8L-125.1,254.8z"/>
<path class="st5" d="M-82.4,241.1c2.1-2.7,2.3-5.9,2.5-9.2c0.1-0.7-0.3-1.4,0.8-1.8c0.7-0.2,0.6-1.1,0.5-1.7c-0.1-1.1,0.6-1.5,1.3-2
	c0.5-0.3,1.2-0.6,1.5,0.1c0.3,0.6-0.4,0.7-0.9,0.9c-1.4,0.4-1.4,1.2-0.4,2c0.2,0.2,0.6,0.2,0.3,0.5c-1,1.1-0.3,2.3-0.5,3.4
	c-0.5,0.1-0.9-0.2-1.3-0.4c-0.6,0.4-0.6,0.8,0,1.3v0.4c-0.4,1.4-1.2,2.8-0.4,4.3c0,0.4,0,0.8,0,1.2c-0.7,0.3-1.4,0.6-2.1,0.8
	C-81.5,241.1-82,241.1-82.4,241.1"/>
<path class="st8" d="M-79,240.3c0-0.4,0-0.8,0-1.2c0.8-1.4,0.2-2.9,0.4-4.3v-0.4c0-0.4,0-0.8,0-1.3c0.4,0.2,0.8,0.5,1.3,0.4
	c0.9-0.7,1.2-2.1,2.5-2.5l0,0c0,0.2,0,0.3,0,0.4c-0.4,1.4-0.9,2.8-1.3,4.2c-0.6-0.2-0.3-1.4-1.2-1.1c-0.7,0.2-0.4,1-0.5,1.5
	c-0.2,1.2-0.6,2.3-0.4,3.5c0,0.7,0,1.4,0,2.1c-0.1,0.6,0.3,0.9,0.8,0.9c0,0.1,0,0.3-0.1,0.4c-0.6,0-0.9,0.3-0.8,0.9
	c0,0.6,0,1.1,0,1.7h-0.4C-78.6,243.7-78.4,241.9-79,240.3"/>
<path class="st0" d="M-82.4,241.1c0.4,0,0.9,0,1.3,0c-0.2,1,0,2.2-0.6,2.9c-1.4,1.6-3.3,2.6-5.4,3.1c0-0.1,0-0.2,0-0.4
	c0.2-0.7,0.8-0.9,1.5-1c1.7-0.4,1.1-3,3.1-3.2C-82.5,242.5-82.5,241.6-82.4,241.1"/>
<path class="st5" d="M-80.7,232c0,0.2-0.1,0.7-0.3,1.1c-0.3,0.6,0,1.9-1,1.7c-0.9-0.2,0.1-1.1,0-1.8c-0.1-0.6,0.3-1.3-0.3-1.6
	c-0.6-0.4-0.8-0.6-0.4-1.3c0.3-0.5,0.7-0.7,1.2-0.6c0.6,0.2,0.8,0.7,0.8,1.3V232z"/>
<path class="st0" d="M-86.7,240.2c0.9-1.8-1-3.3-0.4-5.1c1.6,0.2,0.2,1.7,1.1,2.4C-84.1,238.9-85.9,239.5-86.7,240.2"/>
<path class="st1" d="M-85,223.6c-0.2-0.7-0.4-1.4-0.6-2.1c-0.4-1,0-1.6,1.1-1.7h0c0.1,0.1,0.3,0.3,0.4,0.4c-0.1,0.8-0.6,1.6-0.1,2.4
	C-83.9,223.2-84.3,223.6-85,223.6"/>
<path class="st0" d="M-87.5,242.4c0-0.6-0.2-1.3,0.4-1.7C-86.5,241.4-86.3,242.1-87.5,242.4"/>
<path class="st8" d="M-74.7,230.9c0.1-0.2,0.2-0.5,0.3-0.7c0.1,0,0.2,0.1,0.3,0.1C-74.3,230.5-74.5,230.7-74.7,230.9L-74.7,230.9z"
	/>
<path class="st9" d="M-70,232.2l0.1-0.2C-70,232-70,232.1-70,232.2"/>
<path class="st6" d="M-128,204c1-0.4,2-0.8,1.3-2.2c2,0.4,1.3,2.5,2.3,3.6c-0.2,0.1-0.3,0.3-0.5,0.3c-0.4-0.1-0.5-0.4-0.6-0.8
	c-0.1-0.2-0.3-0.3-0.4-0.4l0,0c-0.1-0.1-0.3-0.3-0.4-0.4C-126.9,204-127.5,204-128,204"/>
<path class="st3" d="M-126.3,204c0.1,0.1,0.3,0.3,0.4,0.4C-126,204.3-126.2,204.1-126.3,204"/>
<path class="st3" d="M-125.8,204.4c0.1,0.1,0.3,0.3,0.4,0.4C-125.6,204.7-125.7,204.6-125.8,204.4"/>
<path class="st7" d="M-84.1,220.2c-0.1-0.1-0.3-0.3-0.4-0.4C-84.4,219.9-84.2,220.1-84.1,220.2"/>
<path class="st0" d="M-85.4,293.1c0.1,0.9,0.8,1.1,1.5,1.3c4.2,1,8.4,2,12.6,3c0.8,0.2,0.8,0.6,0.8,1.2c-3.2-1.1-6.3-2.3-9.8-1.7
	c-0.1-0.6-0.3-1-0.9-1.2c-1.5-0.7-2.7,1.3-4.3,0.4c-0.8-1.2-4.1-2.3-5.8-2c-0.7,0.2-1.5,0.2-2.3,0.3c0.3-0.6,0.6-1-0.5-1.4
	c-1.9-0.6-4-1.1-5.8-1.9c-1.6-0.7-2.3-0.9-3.1,0.7c-0.4-0.1-1-0.2-0.6-0.7c0.6-0.8,0.3-1-0.4-1.7c-1.4-1.4-2.6-1.3-4.1-0.6l0-1.2
	c0-0.2,0.1-0.4,0.1-0.5c2.1,0,3.9,0.9,5.8,1.5c2.9,0.9,5.6,2.5,8.7,2.5c1,0,1.5,1.1,2.5,0.7C-89.4,293.8-87.4,293.5-85.4,293.1"/>
<path class="st2" d="M-108.1,287.7c0,0.4,0,0.8,0,1.2c-1.1,1.1,0.6,1.7,0.5,2.6c-0.1,0.1-0.1,0.1-0.2,0.2c-1.2-1.2-2.9-2-3.1-4
	C-109.9,288.5-109,287.3-108.1,287.7"/>
<path class="st0" d="M-94.3,213.4c0.1,0.1,0.1,0.2,0.2,0.3c0,0-0.1,0.1-0.2,0.1C-94.3,213.7-94.3,213.5-94.3,213.4"/>
<path class="st2" d="M-101.2,297c-0.1,0.6,0.1,0.9,0.7,1.2c0.8,0.4,1.2,1.3,0.9,2.3c-2.4-1-3.6-3.5-5.7-4.9c-0.1-1.8-2.2-2.4-2.5-4
	c0.1-0.1,0.1-0.1,0.2-0.2c1.7,0.8,3,1.9,3.5,3.8c0.2,0.8,1.2,0.9,2,0.9C-101.7,296.4-101.4,296.7-101.2,297"/>
<path class="st5" d="M-101.6,279.1c-3.8,0.2-7-2.2-10.7-2.5c-0.4-1-2.1-1.4-1.1-3c0.3-0.5-1.1-0.1-1.4-0.8c0.1-0.1,0.3-0.3,0.4-0.4
	h1.7h0c0.3,0.4,0.4,1.3,1,1.1c1.8-0.8,4-1.1,4.9-3.2l0.4-0.4c1.5,0.3,3.1,0,4.3,1.3c0.8,0.7,1.2-0.4,1.8-0.6
	c1.7-0.6,3.5,0.3,3.7,1.9c0,0.5,0.2,0.8,0.5,1.1c1.6,1.5-0.7,2.6-0.4,4.1c0.1,0.3-1.1-0.2-1.7-0.3c-1.3-0.1-2.4-0.2-2.8,1.4
	C-100.9,279-101.2,279.1-101.6,279.1"/>
<path class="st3" d="M-121.2,238.6c-0.6-1,0.9-2,0-3c0.9-1.1,2.5-1.2,3.6-2c0.4-0.3,1.1,0,1.4,0.6c0.3,0.7-0.2,1-0.7,1.3
	c-0.5,0.2-1,0.4-2,0.9c4.2,1.5,7.4,4.7,11.9,2.7c0.2,0.3,0.4,0.6,0.7,0.8c1.5,1.2,1,1.7-0.6,1.8c-0.2-0.1-0.3-0.2-0.5-0.3
	c0,0.1-0.1,0.1-0.1,0.2c0.2,0.1,0.4,0.1,0.6,0.2c0,0.6,0,1.1,0,1.7c-2.8-0.1-5.2-1.4-7.7-2.5c-1.3-0.3-2.5-0.6-3.8-0.9
	C-119.4,239.3-119.8,237.9-121.2,238.6L-121.2,238.6z"/>
<path class="st3" d="M-120.4,248c-0.4,0-0.8,0-1.2,0c-0.7-0.8,0.3-2.7-1.7-2.7c0.9-2.5-1.2-1.6-2.4-1.9c0.9-1.3,3-1.6,2.4-3.6
	c0.2-0.3,0.5-0.4,0.8-0.4c0.2,0.6,1.1,1,0.6,1.9c-1.1,1.9,0.2,2,1.6,1.9c0.3,0,0.7,0,1,0c0.4,0,1.1,0.5,1.1-0.4
	c0-1.1-0.8-0.3-1.2-0.4c-0.1-0.4-0.7-0.8,0-1.3c0.3,0,0.6-0.1,0.8-0.4c0.6,0,0.8,0.3,0.8,0.8c1,1.5,2.8,0.7,4.1,1.2
	c0.8,0.3,1.6,0.7,1.3,1.3c-0.6,1.2-1.3,2.5-2.9,2.8c-1.1,0.2-1.4-0.5-1.3-1.4c0.1-0.5,0.9-1.1-0.1-1.2c-0.6-0.1-1.9,0.2-1.7,1.3
	C-117.8,247.7-119.1,247.7-120.4,248"/>
<path class="st3" d="M-103.7,261.2h-0.4c-0.1-0.3-0.3-0.3-0.4,0h-0.2h-0.2c-0.4-0.6-1.1-0.4-1.7-0.5c-0.1-2.8-0.1-2.8-3.1-2.6
	c-0.6,0-1-0.5-1.1-0.8c-0.2-0.8-0.9-0.8-1.4-1.1c0.8-0.6,1.7-1.3,2.8-1.1c0.1,0,0.2,0,0.2,0c0.9-1.9,2.1-1.7,3.9-0.9
	c1.4,0.6,3.2,0.1,4.6,1c0,0.1-0.1,0.1-0.1,0.2c-0.4,0.8-2.9,0.6-1.1,2.4c-1.1,1.2,0,2.5-0.1,3.8h-1.3
	C-103.4,261.4-103.6,261.3-103.7,261.2"/>
<path class="st3" d="M-106.7,262.4c1.9,0,3.9-0.1,5.6,1.3c0.2,1.7-0.5,2.9-2.1,2.9c-1.6,0-1.4,0.8-1.3,1.8c-1.6-0.1-3.2,0.4-4.7-0.4
	c0.8-1.1,1.7-2,3.2-1.4c0.2-1.7-3.4-2.1-1.1-4.2H-106.7"/>
<path class="st3" d="M-93.1,253.1v0.8c-1.6,0-3.1,0.3-4.8,0.1c-1.6-0.2-2.3-1.9-4-1.6c0,0-0.2-0.3-0.1-0.4c1.8-1.2,0.3-3.2,1-4.8
	c0.3,0.2,0.5,0.4,0.6,0.5c0.6,0.5-0.8,3.7,1.9,1.3c0.5-0.5,1.4,0.8,1.6,1.4c0.4,1.2,1.1,1.2,2,1.1h0.4v0c0,0.4,0.1,0.7,0.4,0.9
	c0.1,0.1,0.3,0.3,0.4,0.4l0,0L-93.1,253.1L-93.1,253.1z"/>
<path class="st3" d="M-112.7,272.2h-1.7c0.3-1.1,1.2-2.1,0.8-3.4c2-0.8,3.9-0.1,5.9,0c0.9,0,1,0.6,0.9,1.3c-0.9,2.1-3.1,2.4-4.9,3.2
	C-112.3,273.6-112.4,272.7-112.7,272.2c0.3-0.1,0.7,0,0.6-0.5c0-0.1-0.1-0.1-0.1-0.1C-112.6,271.6-112.6,271.9-112.7,272.2"/>
<path class="st5" d="M-125,254.7c-0.1-0.1-0.3-0.3-0.4-0.4c0-0.3-0.1-0.6-0.4-0.8v-0.8c1.1-1.4,2.3-2.7,4.3-2.6c0.1,0,0.2,0,0.3,0
	c1.7,1.1,1.1,2.3,0.2,3.5c-0.6,0.7-1.1,1.1-0.2,2.1c0.9,1-0.4,1.5-1.3,1.7c-0.4-0.3-0.4-0.7-0.4-1.1
	C-122.9,254.7-123.6,254.2-125,254.7"/>
<path class="st3" d="M-104.4,253c-1.1-0.6-2.4-0.1-3.6-0.4c-0.7-0.1-1.3-0.4-1.2-1.2c0.1-0.8,0.7-1,1.4-0.9c1,0.2,1.9,0.6,3-0.1
	c0.5-0.3,1.3,0.3,1.8,0.8c0.3,0.3,0.4,0.7,0.2,1.2C-103.1,253.1-103.7,253-104.4,253"/>
<path class="st6" d="M-106.7,270.1c0-0.7-0.1-1.3-0.9-1.3c-2-0.1-3.9-0.8-5.9,0c-0.1,0-0.3,0-0.4,0c-0.1-1,0.5-1.4,1.4-1.3
	c1.1,0.1,2.2,0.3,3.3,0.4c1.5,0.8,3.1,0.3,4.7,0.4l4.2,0.5c-1.1,0.7-2.3,0.3-3.5,0.1c-0.9-0.1-2-0.8-2.5,0.7L-106.7,270.1z"/>
<path class="st3" d="M-107.1,237.3c-0.7-0.6-1.4,0-2.1,0.2c0.1-1.1,1.9-1.6,0.4-2.8c-0.3-0.2,0.8-0.9,1.4-1.3c0.9,0.2,1.1,1,1.3,1.7
	C-107.1,235.6-106.6,236.6-107.1,237.3"/>
<path class="st6" d="M-107.1,243.2c1.9,0.5,3.8,0.4,5.7,0.7c-0.6,0.5-1,1.3-2.2,0.7c-0.9-0.4-2.1-0.1-3.1-0.3
	C-107.5,244.3-108,243.9-107.1,243.2"/>
<path class="st6" d="M-106.7,262.4h-0.4c-0.1-0.4,0.2-1.1-0.6-0.9c-1,0.2-1.9-0.4-3.1-0.5c1.5-1.3,2.9-0.5,4.2-0.3
	c0.6,0.1,1.3-0.2,1.7,0.5C-105.9,261.1-106.6,261.3-106.7,262.4"/>
<path class="st6" d="M-117.8,241.5c0-0.6-0.3-0.8-0.8-0.8c0-0.3,0-0.6,0-0.9c1.3,0.3,2.5,0.6,3.8,0.9
	C-115.4,242.4-117,240.6-117.8,241.5"/>
<path class="st3" d="M-97.3,255.2c-0.8,1.8-1.7,0.5-2.6,0C-99,254.2-98.2,255.5-97.3,255.2"/>
<path class="st6" d="M-120.8,264.6h0.5c0.6,0.5,1.3,0.9,2.3,1.7C-119.7,266.1-120.4,265.6-120.8,264.6"/>
<path class="st3" d="M-108.2,265.4c-0.1,0.4-0.4,0.4-0.6,0.3c-0.4-0.1-0.7-0.3-0.7-0.7c0-0.4,0.3-0.4,0.6-0.3
	C-108.6,264.9-108.2,265-108.2,265.4"/>
<path class="st3" d="M-105.8,236.8c0.6,0,1.2,0.1,1.3,0.9C-105.6,238.3-105.9,237.9-105.8,236.8"/>
<path class="st3" d="M-118.6,249.2c-0.7,0-1.4,0-1.7-0.9C-119.7,248.4-118.8,248.1-118.6,249.2"/>
<path class="st6" d="M-98.1,245.8c0.4,0.2,0.7,0.4,0.6,0.9c0,0.1-0.2,0.2-0.3,0.2C-98.3,246.7-98.1,246.2-98.1,245.8L-98.1,245.8z"
	/>
<path class="st6" d="M-115.8,268c-0.2-0.1-0.3-0.2-0.5-0.3c0.1-0.1,0.3-0.4,0.4-0.4c0.1,0,0.3,0.2,0.4,0.3
	C-115.5,267.7-115.6,267.8-115.8,268"/>
<path class="st6" d="M-117.1,266.8c-0.1,0-0.1,0-0.1-0.1c0-0.1,0-0.1,0-0.2c0.1,0,0.2,0,0.2,0.1C-117,266.7-117.1,266.8-117.1,266.8
	"/>
<path class="st6" d="M-93.9,252.2c-0.4-0.2-0.4-0.5-0.4-0.9C-94,251.5-93.9,251.9-93.9,252.2"/>
<path class="st6" d="M-93.5,252.6c-0.1-0.1-0.3-0.3-0.4-0.4L-93.5,252.6z"/>
<path class="st6" d="M-93.1,253.1l-0.4-0.4L-93.1,253.1z"/>
<path class="st6" d="M-114,268.8c0,0.1-0.1,0.1-0.1,0.2C-114,268.9-114,268.9-114,268.8"/>
<path class="st6" d="M-98.2,245.8c-0.1-0.1-0.1-0.2-0.2-0.2C-98.3,245.7-98.2,245.7-98.2,245.8L-98.2,245.8z"/>
<path class="st6" d="M-94.3,251.4h-0.5C-94.6,251-94.5,251-94.3,251.4"/>
<path class="st8" d="M-114,221.9c0,0.1,0,0.3,0,0.4c-0.6-0.7-1.1-1.4-1.9-2.5C-114.4,220.3-113.9,220.9-114,221.9"/>
<path class="st8" d="M-114,223.2c0,0.1,0,0.3,0.1,0.4c-0.2,0-0.4-0.1-0.6-0.2C-114.3,223.3-114.2,223.3-114,223.2"/>
<path class="st0" d="M-113.1,217.2c0,0.1-0.1,0.1-0.1,0.2L-113.1,217.2z"/>
<path class="st4" d="M-73,279.5c-0.5,0.8-0.6,2.2-2.1,1.3c0-0.6-0.3-0.8-0.9-0.8c-0.1-0.2-0.3-0.3-0.4-0.4c-0.1-0.4,0-0.9-0.6-0.6
	c-0.1,0-0.2,0.3-0.3,0.5c0.3,0.1,0.6,0.1,1,0.2c0.1,0.1,0.3,0.3,0.4,0.4c0,0.6,0.3,0.8,0.8,0.9c0.7,2.6,0.3,3-2.9,2.4
	c-2.9-0.5-5.8-0.9-8.6-1.8c-1.4-0.5-3.1,0.4-4.6-0.6c0.2-2.3-0.5-4.5-1.8-6.2c-1-1.2-1.5-2.2-1.2-3.6c0.4,0.1,0.8,0.5,1.2,0.4
	c3.2-0.9,6.5,0.2,9.7-0.4c0.7-0.1,1.5,0,1.9,0.7c0.7,1.1,1.6,1.7,2.9,1.9c0.2-1.6-2-2.2-1.7-3.9c1.4-0.1,1.3,2.4,3,1.7l0,0
	c0.1,0.6-0.3,1.3,0.5,1.6c0.6,0.3,0.8,0.5,0.2,1c-1.2,0.8-0.5,1.5,0.1,2.1c-0.4,0.8-1.8-0.1-1.9,0.9c0,0.6,0.6,1.2,1.5,0.8
	C-75,277.3-74.4,279.1-73,279.5"/>
<path class="st4" d="M-87.1,247.1c2.1-0.5,4-1.5,5.4-3.1c0.6-0.6,0.4-1.9,0.6-2.9c0.7-0.3,1.4-0.6,2.1-0.9c0.6,1.7,0.4,3.4,0.4,5.1
	c-0.9,0.9,0.2,2.8-1.7,3.3c1.2,2-0.1,4-0.1,6c0,1.6-0.3,3.2-0.4,4.8c-0.6,1.2-0.6,2.5-0.9,3.8c-0.2,0.7-0.2,1.9-1.2,2
	c-1.1,0.2-1.4-0.8-1.9-1.6c-0.7-1-0.6-2.7-2.3-3c-0.1-0.6-0.3-1.1-0.4-1.7c0.4-0.1,1.2-0.5,0.8-0.6c-2.1-0.7-0.6-1.2,0-1.8
	c0.3-0.3,0.5-0.8,0.1-0.8c-1.5,0-1.9-1.4-3.1-1.9c0.3-0.9,0.6-1.7,0.9-2.6c0.6,0,1,0.2,1.5,0.6c0.5,0.5,1,0.8,1.8,0.1
	c0.8-0.8,0.4-1.1-0.1-1.9c-0.5-0.9-1.6-1.5-1.5-2.7C-87.1,247.3-87.1,247.2-87.1,247.1"/>
<path class="st0" d="M-100.3,268.9l-4.2-0.5c-0.2-1-0.4-1.8,1.3-1.8c1.6,0,2.4-1.2,2.1-2.9c2.1-1.2,4.1,0.2,6.2,0.1
	c0.8,0,1.9-0.4,2.8,0.3c0.7,0.7,1.6,1.4,1.1,2.5c-0.4,1-1.4,0.4-2.2,0.6c-1,0.2-2.2,0.6-2.4,2c-1.8,0.3-2.7-0.4-2.6-2.5
	C-98.4,268.3-99.5,268.4-100.3,268.9"/>
<path class="st4" d="M-95.6,269.3c0.2-1.4,1.4-1.8,2.4-2c0.8-0.1,1.8,0.4,2.2-0.6c0.5-1.1-0.4-1.8-1.1-2.5c1.3,0.2,2.5-0.3,3.8-0.5
	c2.5,0.4,3.8,2.2,4.7,4.3c0.7,1.6,0.2,2.6-1.5,2.4c-3.3-0.4-6.6-0.6-10-0.7C-95.3,269.6-95.4,269.4-95.6,269.3"/>
<path class="st0" d="M-94.3,271c-0.3,1.4,0.2,2.4,1.2,3.6c1.3,1.7,1.9,3.9,1.8,6.2c-2.5-0.3-5-0.6-7.4-1c-0.8-0.1-1.4-0.5-1.9-1.1
	c0.3-1.6,1.5-1.6,2.8-1.4c0.6,0.1,1.7,0.6,1.7,0.3c-0.4-1.5,2-2.7,0.4-4.1c-0.3-0.3-0.5-0.7-0.5-1.1C-96,271.4-95.5,270.6-94.3,271"
	/>
<path class="st5" d="M-80.7,259.4c0.2-1.6,0.4-3.2,0.4-4.8c0-2,1.2-4,0.1-5.9c1.8-0.5,0.8-2.4,1.6-3.3h0.4c0.3,0.2,0.4,0.5,0.4,0.9
	c-0.2,1.3-1.1,2.5-0.2,4c0.4,0.6-0.9,1-0.9,2.1c0,2.4,0.3,4.9-1.3,7H-80.7"/>
<path class="st4" d="M-80.3,262.9c0.2,0.1,0.7,0.3,0.7,0.3c-0.2,1.3,0,1.6,1.4,0.9c2.6-1.2-0.2,2.2,1.7,1.8c-1.1,0-2,0.3-2.9,0.5
	c-0.6,0.1-1.2,0.6-0.6,1.2c1.5,1.5-0.3,1-0.8,1.3C-82,267.4-81.8,265.4-80.3,262.9"/>
<path class="st5" d="M-95.6,233.9c-0.5,3-0.8,6.1-3.4,8.2c-1.2-0.7-1.8-1.9-2.5-3.1c-0.1-0.6,0.2-1.3-0.5-1.7c-0.1-2.3,1-4,3-5.1
	c1.3-0.5,2.3-0.3,2.5,1.3C-96.4,234.1-96.1,234-95.6,233.9"/>
<path class="st8" d="M-99.9,224.9c-0.2,1.7-1.2,3.3-0.8,5.1c-0.2,0.1-0.6,0.5-0.6,0.4C-102.5,229.1-101.6,225.8-99.9,224.9"/>
<path class="st0" d="M-89.7,253.9c1.1,0.5,1.6,1.9,3.1,1.9c0.4,0,0.2,0.6-0.1,0.8c-0.5,0.6-2.1,1.1,0,1.8c0.4,0.1-0.4,0.6-0.8,0.6
	c-1.5-0.1-1-1.8-1.9-2.4C-90.5,255.8-90.3,254.9-89.7,253.9"/>
<path class="st0" d="M-87.1,247.5c-0.1,1.2,0.9,1.8,1.5,2.7c0.4,0.7,0.9,1.1,0.1,1.9c-0.7,0.7-1.3,0.5-1.8-0.1
	c-0.4-0.5-0.9-0.6-1.5-0.6C-87.9,250.2-88.7,248.3-87.1,247.5"/>
<path class="st3" d="M-102,237.3c0.7,0.4,0.4,1.1,0.5,1.7C-102.3,238.6-102.8,238.1-102,237.3"/>
<path class="st5" d="M-99.1,242.3c0.3,0.2,0.5,0.5,0.5,0.9c-0.5,0.6-0.7,0.4-0.5-0.3C-99.1,242.7-99.1,242.5-99.1,242.3"/>
<path class="st0" d="M-96.9,229.6l-0.1,0.2C-97,229.7-96.9,229.7-96.9,229.6"/>
<path class="st6" d="M-103.7,261.2c0.1,0.1,0.3,0.3,0.4,0.4C-103.9,261.9-103.6,261.3-103.7,261.2"/>
<path class="st6" d="M-104.6,261.2c0.2-0.3,0.3-0.3,0.5,0H-104.6z"/>
<path class="st1" d="M-68.4,241.1c0.2,3.6,0.5,7.3-0.8,10.8c-0.4,1-0.6,1.5-1.7,1.1h0c-0.2-0.1-0.3-0.3-0.4-0.4
	c0-0.4-0.1-0.7-0.4-0.9c0.1-1.8-0.4-3.5,1.6-4.8c1.4-0.9-0.2-2.2-0.6-2.9c-0.7-1-1.1-1.8-0.3-2.7C-70.3,240.4-69.3,240.9-68.4,241.1
	"/>
<path class="st1" d="M-70.9,253.9c1.9,0.6,1.6,2.2,1.5,3.5c-0.1,1.6-0.9,3.2-0.7,4.9c0.2,1.2-0.7,0.6-1.3,0.6h-0.8
	c0-0.1,0-0.3,0-0.4c0.1-0.7-0.2-1.4,0.3-2.2c0.4-0.8,0.3-1.8-0.4-2.7C-74,255.2-73.6,254.3-70.9,253.9"/>
<path class="st0" d="M-78.1,239.4c-0.2-1.2,0.2-2.4,0.4-3.5c0.1-0.5-0.2-1.2,0.5-1.5c0.9-0.3,0.6,0.9,1.2,1.1
	C-76.1,237.2-76.1,238.8-78.1,239.4"/>
<path class="st3" d="M-76.8,277.8c-0.9,0.5-1.6-0.2-1.5-0.8c0.1-1,1.5-0.1,1.9-0.9C-75.5,276.9-76.9,277.2-76.8,277.8"/>
<path class="st0" d="M-77.2,242.4c-0.6,0-0.9-0.3-0.8-0.9c0.9,0.9,2-0.4,2.9,0.5l0,0C-75.7,242.6-76.4,243-77.2,242.4"/>
<path class="st4" d="M-77.3,271.4c0.4-0.7,1-1.1,2-1.1C-75.7,271.3-76.5,271.4-77.3,271.4L-77.3,271.4z"/>
<path class="st0" d="M-71.7,251.7c0.3,0.2,0.4,0.5,0.4,0.9C-71.9,252.5-72.4,252.4-71.7,251.7"/>
<path class="st5" d="M-78.1,243.7c0-0.6,0.2-0.9,0.8-0.9C-77.3,243.3-77.6,243.6-78.1,243.7"/>
<path class="st0" d="M-75.2,241.9c0.1-0.2,0.1-0.4,0.2-0.6c0.1,0,0.2,0.1,0.2,0.1C-74.9,241.7-75,241.8-75.2,241.9L-75.2,241.9z"/>
<path class="st0" d="M-72.2,262.5c0,0.1,0,0.3,0,0.4c-0.1,0.1-0.3,0.2-0.3,0.2C-72.6,262.7-72.4,262.6-72.2,262.5"/>
<path class="st0" d="M-71.3,252.6c0.1,0.1,0.3,0.3,0.4,0.4C-71,252.9-71.2,252.8-71.3,252.6"/>
<path class="st7" d="M-72.6,283.3c0-1,0-2,0-3c1.2-1,0.5-2.9,1.7-3.9c2.7,0.3,1,2.9,2,4c0.3,0.3,0.1,1,0.5,1.6c0.6,1-1,0-1,1
	c1.2,0.3,2.1,1.6,3.6,1.5v0.6c-0.1,0.2-0.3,0.4-0.4,0.6c-0.6,1.2-1.1,2.4-1.7,3.5c-0.1-1.2-1.8-1.3-1.7-2.6c0.1,0,0.1,0,0.1-0.1
	c0,0,0-0.1,0-0.1c-0.1,0.1-0.1,0.1-0.2,0.2c-0.1,0-0.3,0-0.4,0c-0.2-0.1-0.3-0.3-0.5-0.4c-0.3-0.6,0.2-1.5-0.9-1.7
	c0-0.3,0-0.6,0-0.9c0.1,0,0.1-0.1,0.2-0.1c-0.1-0.1-0.1-0.2-0.2-0.3C-71.8,283.3-72.2,283.3-72.6,283.3L-72.6,283.3z M-71,278.9
	c0.1,0,0.1,0.1,0.2,0.1c0,0,0-0.1,0.1-0.2c-0.1,0-0.1-0.1-0.2-0.1C-71,278.7-71,278.8-71,278.9"/>
<path class="st4" d="M-61.5,273.5c0.1,1.4,0,2.7-0.7,3.9c-0.6,1.1,0,1.3,1,1.5c-1.1,0.8-2.3,1.4-2.5,2.8c-0.3,0-0.6,0-0.8,0
	c-1.1-1.3,0.4-2.3,0.8-3.1C-62.9,276.9-63.1,274.8-61.5,273.5"/>
<path class="st3" d="M-64.5,282.5c0.3,0.9,0.2,1.8-0.9,2.1c0-0.4,0-0.9,0-1.3c0-0.2,0-0.3,0-0.4C-65.2,282.6-64.8,282.5-64.5,282.5"
	/>
<path class="st3" d="M-64.5,281.6h0.8c0,0.5-0.3,0.9-0.8,0.9C-64.5,282.2-64.5,281.9-64.5,281.6"/>
<path class="st7" d="M-65.4,282.9c0,0.1,0,0.3,0,0.4c-0.3-0.1-0.6,0-0.6-0.5C-65.8,282.9-65.6,282.9-65.4,282.9"/>
<path class="st4" d="M-64.6,276.9c0,0.1-0.1,0.1-0.1,0.2c0-0.1-0.1-0.1-0.1-0.2c0-0.1,0.1-0.1,0.1-0.2
	C-64.7,276.8-64.6,276.9-64.6,276.9"/>
<path class="st3" d="M-65.8,285.2v-0.6h0.4C-65.5,284.8-65.6,285-65.8,285.2"/>
<path class="st0" d="M-69.7,299.5c0.6-0.3,0.4-0.8,0.5-1.3l0,0c1.3-0.1,2.7,0.3,4-0.2c-0.6-1.1-1.2-2.1-1.8-3.2
	c-0.4-0.6-0.5-1.3-0.5-2c0-0.4,0-0.7,0.4-1c0.2,0.2,0.6,0.3,0.6,0.5c0.1,2.4,2.5,3.1,3.7,4.6c0,0.7,0.1,1.4,0.7,1.9
	c1.3-1.1,0.6-3.3,2.3-4c0.1,0.6-0.2,1.2-0.4,1.7v0.4c-0.3,0.7-0.8,1.4,0,2.2v0.4c-0.1,0-0.3,0-0.4,0c-0.6,0.1-1.1,0.2-0.4,0.8
	c0,0.4,0,0.8,0,1.3c0,0.3,0,0.6,0,0.9l-0.1,0.1c-0.9-0.8-1.8-1.6-2.6-2.5c-1.1-1.4-3-1.2-4.6-0.6C-68.8,299.7-69.2,300.1-69.7,299.5
	"/>
<path class="st0" d="M-55.1,309.8c-1.4,0-2.2-0.7-2.7-1.9c-0.6-1.3-1.5-2.5-2.8-3.2c-1.7-0.4-0.2-1.4-0.5-2.1l0.1-0.1
	c0.6,0.4,1.1,0.4,1.7,0c1,2.2,1.9,4.4,3.7,6.1C-55.3,309-55.1,309.3-55.1,309.8"/>
<path class="st1" d="M-57.3,292.7c0-0.4,0.1-0.7,0.5-0.8c1.6,1.7,2.1,3.4,0.2,5.3c-0.3,0.3-0.2,1.1-0.9,0.6
	c-0.6-0.4-0.7-1.4-0.3-1.7C-56.1,295.2-56.8,293.9-57.3,292.7"/>
<path class="st5" d="M-50.8,316.6c-0.3,0-0.5,0-0.8,0c-0.2-0.3-0.3-0.6-0.5-0.8c-0.1-0.8-0.6-1.3-1.3-1.7h0
	c-0.4-0.7-0.9-1.3-1.7-0.4c-0.6,0-0.8-0.4-0.9-0.9c0.3-0.6,1.4-0.3,1.3-1.3c1.1,0.3,1.2,1.7,2.2,2.1c0.6,0.6,1.1,1.2,1.7,1.7
	C-50.9,315.7-50.9,316.2-50.8,316.6"/>
<path class="st0" d="M-52.6,313.6c-1-0.5-1-1.8-2.2-2.1c-0.6-0.5-0.3-1.1-0.4-1.7c1,0.6,1.6-0.3,2.7-1.1
	C-53.1,310.7-52.9,312.1-52.6,313.6"/>
<path class="st4" d="M-59.4,302.5c-0.6,0.4-1.1,0.4-1.7,0c0-0.3,0-0.6,0-0.9c0.6,0.1,1.2-0.2,1.7,0.4V302.5z"/>
<path class="st4" d="M-51.1,302.8c-0.3,1.3-0.5,2-0.8,3.1C-52.1,304.7-52.4,303.9-51.1,302.8"/>
<path class="st4" d="M-61.1,300.4c-0.6-0.7-0.1-0.8,0.4-0.9C-60.7,299.9-60.7,300.2-61.1,300.4"/>
<path class="st1" d="M-57.2,290.2c-0.2,0-0.6,0-0.6-0.4c0-0.2,0.4-0.3,0.6-0.5V290.2"/>
<path class="st4" d="M-60.2,297v-0.4c0.3,0,0.6,0.1,0.9,0.1v0.2C-59.6,296.9-59.9,296.9-60.2,297"/>
<path class="st0" d="M-58.1,301.6l-0.2-0.1c0.1,0,0.1-0.1,0.2-0.1c0.1,0,0.1,0.1,0.2,0.1L-58.1,301.6z"/>
<path class="st0" d="M-52.6,307.6l-0.1,0.2c-0.1-0.1-0.1-0.1-0.2-0.2c0,0,0.1-0.1,0.1-0.1C-52.7,307.5-52.7,307.6-52.6,307.6"/>
<path class="st0" d="M-59.4,302.5v-0.5C-59.1,302.2-59,302.4-59.4,302.5"/>
<path class="st4" d="M-60.2,299.5v-0.4C-59.9,299.3-59.9,299.4-60.2,299.5"/>
<path class="st9" d="M-56.8,283.8c0-0.6,0-1.3,0.8-1.3C-56,283.1-56,283.7-56.8,283.8"/>
<path class="st9" d="M-56.8,284.2c-0.3-0.1-0.3-0.3,0-0.4V284.2"/>
<path class="st9" d="M-56,281.2c0.1,0,0.3,0,0.4,0l-0.4,0.4V281.2z"/>
<path class="st9" d="M-81.1,295.7c0.6,0.2,0.8,0.6,0.9,1.2c-0.4,0.5-0.8,1.1-1.4,1.7C-82.4,297.4-80.7,296.7-81.1,295.7"/>
<path class="st2" d="M-65.3,311.5c0-0.1,0-0.3,0-0.4c0.1,0,0.2,0,0.3,0C-65.1,311.2-65.2,311.3-65.3,311.5"/>
<path class="st2" d="M-84.1,302.9c-0.1,0.3-0.3,0.3-0.5,0H-84.1"/>
<path class="st9" d="M-58.1,316.2c0.6-0.7,1.1-1.3,1.9-2.3C-56.2,315.6-56.6,316.4-58.1,316.2"/>
<path class="st7" d="M-53.4,314c0.7,0.4,1.2,0.8,1.3,1.7C-53.5,315.9-53.4,315-53.4,314"/>
<path class="st9" d="M-55.1,313.6c0.8-0.9,1.3-0.3,1.7,0.4C-54,314-54.6,314.2-55.1,313.6"/>
<path class="st9" d="M-58.1,316.2c0,0.6-0.3,0.8-0.9,0.8C-58.9,316.5-58.7,316.2-58.1,316.2"/>
<path class="st5" d="M-57.2,312.7c0.1-0.3,0.3-0.2,0.4,0C-56.9,312.8-57.1,312.7-57.2,312.7"/>
<path class="st4" d="M-101.2,297c-0.3-0.3-0.6-0.6-0.9-0.8c0.1-1.1,1.1-0.3,1.5-0.7c0.3-0.3,0.7-0.5,0.5-1c-0.2-0.4-0.5-0.3-0.9-0.3
	c-2.5,0.2-2.5,0.2-1.9-2.2c0.7-1.6,1.5-1.4,3.1-0.7c1.8,0.8,3.9,1.3,5.8,1.9c1,0.3,0.8,0.7,0.5,1.4c-0.1,0.1-0.3,0.2-0.4,0.4
	c-0.3,0-0.7,0.1-0.8,0.5c-1.1,0.4-2.1,1-3.3,0.6c-0.1,0-1.4-0.2-0.5,0.7v0.4C-99.5,297.3-100.3,297.3-101.2,297"/>
<path class="st0" d="M-98.6,296.6c-0.8-1,0.4-0.8,0.5-0.7c1.2,0.4,2.3-0.2,3.3-0.6c-0.4,1.1-1.1,1.9-2.1,2.5c0,0,0,0,0,0
	C-96.8,296.5-97.7,296.5-98.6,296.6"/>
<path class="st0" d="M-94.8,295.3c0.2-0.4,0.5-0.4,0.9-0.5C-94.1,295.2-94.4,295.3-94.8,295.3"/>
<path class="st9" d="M-98.6,296.6c0.9,0,1.8-0.1,1.7,1.3c-0.7-0.1-1.6,0.3-1.7-0.8V296.6"/>
<path class="st5" d="M-119.5,241.1c-0.7,0.4-0.1,0.8,0,1.3c-0.3,0.3-0.6,0.6-0.9,0.8c-1.4,0-2.7-0.1-1.6-1.9
	c0.5-0.9-0.4-1.3-0.6-1.9c0-0.3,0-0.6,0-0.8c0.4,0,0.8,0,1.3,0v0C-121.3,239.9-120.1,240.3-119.5,241.1"/>
<path class="st3" d="M-67.1,291.9c-0.4,0.2-0.4,0.6-0.4,1c-1.1-0.9-2.5-1.7-2.2-3.4l0.1-0.1c0.4,0,0.8,0,1.3,0c0,0.1,0,0.3,0,0.4
	c0,0.1,0,0.3,0,0.4c0,0.1-0.1,0.1-0.1,0.2c0-0.1,0.1-0.1,0.1-0.2c0.1-0.1,0.3-0.3,0.4-0.4c0-0.1,0-0.3,0-0.4v0
	c0.6-1.2,1.1-2.4,1.7-3.5c0.9,0.7,0.2,1.4-0.1,2C-66.9,289.1-67.4,290.4-67.1,291.9"/>
<path class="st9" d="M-61.3,280.3c1.3,0.4,1.9,0.7,1.7,1.6c-0.1,0.5-0.7,0.7-1,0.5C-61.6,282-60.7,281.2-61.3,280.3"/>
<path class="st9" d="M-56,281.2c-0.3-0.1-0.6-0.1-0.9-0.2c0.1-0.2,0.1-0.4,0.3-0.5C-56.1,280.3-56,280.8-56,281.2"/>
<path class="st4" d="M-85.4,293.1c-2,0.4-4.1,0.7-5.6-1.3c1.8-1.5,3.6-0.3,5.4,0C-84.9,291.9-85.5,292.7-85.4,293.1"/>
<path class="st0" d="M-69.2,298.3c-0.2-0.1-0.4-0.1-0.6-0.2c0-0.1,0.1-0.2,0.1-0.2C-69.5,298-69.3,298.1-69.2,298.3L-69.2,298.3z"/>
<path class="st4" d="M-81.1,289.3c0.1,0,0.1,0.1,0.2,0.1C-81,289.4-81.1,289.3-81.1,289.3L-81.1,289.3z"/>
<path class="st0" d="M-68.3,289.3c-0.4,0-0.8,0-1.3,0c0.3-0.9-1.9-1.5-0.4-2.6c0.1,0,0.3,0,0.4,0c-0.1,1.3,1.6,1.4,1.7,2.6v0H-68.3z
	"/>
<path class="st0" d="M-71.3,284.6c1.1,0.2,0.6,1.1,0.9,1.7c-0.7,0.5-1.1,0-1.4-0.6C-72.1,285.1-72.1,284.7-71.3,284.6"/>
<path class="st0" d="M-73,283.3c-0.1-0.1-0.1-0.1-0.2-0.2C-73.1,283.2-73.1,283.3-73,283.3L-73,283.3z"/>
<path class="st0" d="M-72.6,283.3c-0.1,0.3-0.3,0.3-0.4,0v0C-72.9,283.3-72.7,283.3-72.6,283.3L-72.6,283.3z"/>
<path class="st0" d="M-71.3,283.4c0.1,0.1,0.1,0.2,0.2,0.3c-0.1,0-0.1,0.1-0.2,0.1V283.4"/>
<path class="st0" d="M-127.6,242.4c-0.3-0.2-0.3-0.3,0-0.5V242.4"/>
<path class="st0" d="M-111,278.6c-0.1-0.1-0.3-0.3-0.4-0.4C-111.3,278.4-111.1,278.5-111,278.6"/>
<path class="st4" d="M-78.5,234.7c-0.2,1.4,0.4,3-0.4,4.3C-79.7,237.5-79,236.1-78.5,234.7"/>
<path class="st4" d="M-78.5,233c0,0.4,0,0.9,0,1.3C-79.1,233.9-79.1,233.4-78.5,233"/>
<path class="st9" d="M-102.9,291.9c-0.6,2.4-0.6,2.4,1.9,2.2c0.4,0,0.7-0.1,0.9,0.3c0.2,0.5-0.2,0.7-0.5,1c-0.4,0.5-1.4-0.4-1.5,0.7
	c-0.8,0-1.8-0.1-2-0.9c-0.6-1.9-1.9-3-3.5-3.9c0.1-0.9-1.6-1.5-0.5-2.5c1.5-0.7,2.8-0.7,4.1,0.6c0.7,0.6,1,0.8,0.4,1.6
	C-103.9,291.7-103.3,291.8-102.9,291.9 M-104.2,292.3c0,0-0.1-0.1-0.1-0.1c0,0-0.1,0-0.1,0.1c0.1,0.1,0.1,0.1,0.2,0.2
	C-104.3,292.4-104.3,292.3-104.2,292.3"/>
<path class="st8" d="M-119.5,241.1c-0.6-0.8-1.8-1.2-1.7-2.5c1.4-0.7,1.8,0.7,2.6,1.3c0,0.3,0,0.6,0,0.8
	C-118.8,241-119.1,241.1-119.5,241.1"/>
<path class="st8" d="M-107.1,241.5c-0.2-0.1-0.4-0.1-0.6-0.2c0-0.1,0.1-0.1,0.1-0.2C-107.4,241.3-107.3,241.4-107.1,241.5"/>
<path class="st8" d="M-120.4,243.2c0.3-0.3,0.6-0.6,0.9-0.8c0.4,0.2,1.2-0.7,1.2,0.4c0,0.9-0.6,0.5-1,0.5
	C-119.7,243.3-120,243.2-120.4,243.2"/>
<path class="st5" d="M-112.7,272.2c0.1-0.3,0-0.7,0.5-0.6c0,0,0.1,0.1,0.1,0.1C-112,272.2-112.4,272.2-112.7,272.2"/>
<path class="st3" d="M-76.4,279.5c-0.3-0.1-0.6-0.1-0.9-0.2c0.1-0.2,0.1-0.4,0.3-0.5C-76.5,278.6-76.5,279.1-76.4,279.5L-76.4,279.5
	z"/>
<path class="st3" d="M-76,279.9c0.6,0,0.8,0.3,0.9,0.8l0,0C-75.7,280.8-76,280.4-76,279.9"/>
<path class="st3" d="M-76,279.9c-0.1-0.1-0.3-0.3-0.4-0.4v0C-76.3,279.6-76.1,279.8-76,279.9"/>
<path class="st9" d="M-71,278.9c0-0.1,0-0.2,0.1-0.2c0.1,0,0.1,0,0.2,0.1c0,0.1,0,0.2-0.1,0.2C-70.9,279-70.9,278.9-71,278.9"/>
<path class="st0" d="M-69.6,286.7c0.1-0.1,0.1-0.1,0.2-0.2c0,0,0,0.1,0,0.1C-69.5,286.7-69.5,286.7-69.6,286.7"/>
<path class="st7" d="M-68.3,289.3h0.4c0,0.1,0,0.3,0,0.4c-0.1,0-0.3,0-0.4,0V289.3"/>
<path class="st0" d="M-68.3,289.7c0.1,0,0.3,0,0.4,0c-0.1,0.1-0.3,0.3-0.4,0.4V289.7"/>
<path class="st0" d="M-68.3,290.2c0,0.1-0.1,0.1-0.1,0.2C-68.4,290.3-68.4,290.2-68.3,290.2"/>
<path class="st0" d="M-104.2,292.3c0,0,0,0.1-0.1,0.1c0-0.1-0.1-0.1-0.2-0.2c0.1,0,0.1-0.1,0.1-0.1
	C-104.3,292.2-104.3,292.2-104.2,292.3"/>
<path class="st10" d="M-6.6,272.4l-9.2,51.5l-9.7,0l9.2-51.5L-6.6,272.4z M47.5,324l6.7-51.5l-13.1,0L32.4,292
	c-2,4.7-4.5,10.7-6.3,16.4h-0.3c0-5.7-0.4-11.6-0.6-16.5L24,272.5l-13,0L-0.9,324l8.9,0l4.7-21.3c1.2-5.5,2.6-13.3,4-20.1h0.1
	c0.2,6.9,0.5,14,0.8,19.6l1.4,20.9h7.5l9.5-21.1c2.5-5.6,5.5-12.8,8-19.4h0.2c-1.4,7.4-2.5,14.5-3.2,20.1l-3,21.3L47.5,324z
	 M62.5,324.1l9.5,0l3.3-18.6c1,0.2,2.4,0.3,4,0.3c5.5,0,10.8-1.4,14.5-4.7c3.6-3.1,6.3-8,6.3-14.5c0.1-5-1.8-8.6-4.8-10.9
	c-3.3-2.7-8-3.4-12-3.5c-4.4,0-9,0.5-11.8,1.4L62.5,324.1z M79.6,281.3c0.8-0.2,2.1-0.4,3.9-0.4c3.8,0,6.9,1.6,6.9,6.6
	c-0.1,5.1-3.9,9.4-9.8,9.4c-1.6,0-2.7-0.2-3.7-0.4L79.6,281.3z M107.5,324.1l9.6,0l3.6-20.3h3c3.8,0,5.7,1.9,6,8.2
	c0.4,6.3,0.8,10.8,1.2,12.1l10,0c-0.8-2.1-1.1-8.9-1.6-14.6c-0.4-4.7-1.5-8.1-4.2-9.4v-0.3c5.8-2.1,10.4-6.9,10.5-14.5
	c0-4.8-2-8.1-4.9-10.1c-3.1-2.2-7.6-3-11.9-3c-4.5,0-9.1,0.5-12.1,1.4L107.5,324.1z M124.8,281.3c0.8-0.2,1.9-0.4,3.8-0.4
	c3.8,0,6.9,1.9,6.9,6c-0.1,5.1-3.9,8.6-9.2,8.6h-4.1L124.8,281.3z M162.8,272.7l-9.2,51.5l9.7,0l9.2-51.5L162.8,272.7z M226.6,324.3
	l6.7-51.5l-13.1,0l-8.6,19.6c-2,4.7-4.5,10.7-6.3,16.4H205c0-5.7-0.4-11.6-0.6-16.4l-1.2-19.6l-13,0l-11.9,51.5l8.9,0l4.7-21.3
	c1.2-5.5,2.6-13.3,4-20.1h0.1c0.2,6.9,0.5,14,0.8,19.7l1.4,20.9h7.5l9.5-21.1c2.5-5.6,5.5-12.8,8-19.4h0.2
	c-1.4,7.4-2.5,14.5-3.3,20.1l-3,21.3L226.6,324.3z M248.8,271.5l-2.3,21.2l6.1,0l5.2-21.2L248.8,271.5z M283,324.4l24-51.5l-10.8,0
	l-10.4,24.5c-2.3,5.3-4.5,10.8-6.2,15.9h-0.1c-0.2-5.4-0.5-10.4-0.9-15.8l-1.7-24.5l-10,0l5.1,51.6L283,324.4z M341.5,293.4l-16.1,0
	l2-11l17.1,0l1.7-9.4l-26.9,0l-9.2,51.5l27.8,0l1.7-9.4l-18.1,0l2.2-12.5l16.1,0L341.5,293.4z M352,324.5l9.6,0l3.6-20.3h3
	c3.8,0,5.7,1.9,6,8.2c0.4,6.4,0.8,10.8,1.2,12.2l10,0c-0.8-2.1-1.1-8.9-1.6-14.6c-0.4-4.7-1.5-8.1-4.2-9.4l0-0.3
	c5.8-2.1,10.4-6.9,10.5-14.5c0.1-4.8-2-8.1-4.9-10.1c-3.1-2.2-7.6-3-11.9-3c-4.5,0-9.1,0.5-12.1,1.4L352,324.5z M369.3,281.8
	c0.8-0.2,2-0.4,3.8-0.4c3.8,0,6.9,1.9,6.8,6c0,5.1-3.9,8.6-9.2,8.6h-4L369.3,281.8z M405.7,324.6l9.7,0l7.4-41.9l12.1,0l1.7-9.6
	l-33.7-0.1l-1.8,9.6l12,0L405.7,324.6z M456.8,272.3c-6.7,0-12.1,5.9-12.2,13.1c-0.1,7.3,5.3,13.2,11.9,13.2c6.7,0,12-5.9,12-13.2
	C468.7,278.2,463.5,272.3,456.8,272.3L456.8,272.3z M456.7,275.6c4.8,0,8.4,4.4,8.3,9.9c-0.1,5.5-3.7,10-8.5,9.9
	c-4.8,0-8.4-4.4-8.3-9.9C448.3,280,451.9,275.6,456.7,275.6L456.7,275.6z M455.2,287.3h1c1.1,0,1.6,0.6,1.8,1.9
	c0.3,1.1,0.5,2.1,0.8,2.6h3.6c-0.1-0.5-0.4-1.1-0.7-2.9c-0.3-1.8-1-2.8-2.1-3.1v-0.2c1.5-0.5,2.4-1.5,2.5-2.7c0-1.2-0.5-2.1-1.1-2.7
	c-0.8-0.6-1.8-1-4.3-1c-2.1,0-4,0.3-4.7,0.5l-0.1,12.1h3.3L455.2,287.3z M455.3,281.9c0.3,0,0.7-0.1,1.2-0.1c1.1,0,1.8,0.5,1.8,1.5
	c0,0.8-0.7,1.5-2,1.5h-0.9L455.3,281.9z"/>
</svg>
