<?xml version="1.0" encoding="UTF-8"?>
<svg id="Calque_1" xmlns="http://www.w3.org/2000/svg" version="1.1" viewBox="0 0 1366 768">
  <!-- Generator: Adobe Illustrator 29.8.4, SVG Export Plug-In . SVG Version: 2.1.1 Build 6)  -->
  <defs>
    <style>
      .st0 {
        fill: #8ec89a;
      }
    </style>
  </defs>
  <g id="Imprim_x27_Vert">
    <path class="st0" d="M393.89,537.23c-.75-1.32-2.23-2.1-3.94-2.1-.56,0-1.16.08-1.68.23-.5.11-1.02.15-1.6.15-1.27,0-2.52-.24-3.78-.46l-1.85-.31c-10.84-1.85-22.26-5.69-35.88-12.05-.12-.12-.26-.23-.42-.31-3.89-2.03-7.62-4.05-11.35-6.14-.09-.05-.2-.07-.33-.07,0,0,0,0,0,0-10.6-6.91-20.92-15.38-32.45-26.64-.09-.19-.21-.37-.36-.52-.23-.24-.47-.49-1.11-1.12-.02-.21-.08-.4-.17-.58-8.25-17.16-8.43-35.19-8.62-54.29-.12-11.99-.24-24.38-2.58-36.43v-.04c-.39-6.13-.77-12.25-.78-18.95-2.57-23.29-11.52-45.56-25.19-62.7-.23-.29-.54-.49-.88-.58-2.1-3.14-4.77-5.74-7.35-8.27-1.5-1.47-3.01-2.93-4.35-4.46-1.06-1.28-2.4-2-4.6-2.1-1.53-1.24-2.91-2.74-4.27-4.22-2.38-2.58-4.84-5.24-8.57-6.44-1.42-2.44-3.2-5.45-6.53-5.98-1.7-.13-2.79-.62-3.8-1.81-3.08-2.83-6.78-4.43-10.02-5.71-.59-.49-1.28-.66-1.98-.86-.94-1.13-2.21-1.72-3.67-1.72-.46,0-.94.06-1.43.18-2.41-3.26-5.9-4.47-9.29-5.64l-1.35-.48c-2.69-4.52-7.55-5.68-11.54-6.19-.27-.04-.74-.34-1.16-.61-.82-.52-1.83-1.18-3.12-1.18-.65,0-1.29.17-1.9.5-.85-.35-1.68-.92-2.55-1.51-1.55-1.06-3.29-2.25-6.1-2.42-.78-.65-1.69-.97-2.73-.97-.56,0-1.13.1-2.35.38-14-1.96-23.21-11-30.38-19.57-.13-.15-.28-.28-.45-.38-.29-.62-.71-1.24-1.49-1.85l-.89-2.58c-.62-4.14-2.92-4.46-3.61-4.46-.46,0-1.82.62-2.15.96-.95.98-1.45,2.55-1.4,4.38,0,1.02,0,2.07.26,3.16.94,4.56,1.95,9.13,2.96,13.7l2.27,10.38.33,1.87c.16.97.33,1.92.56,2.83-.67,1.09-.58,2.39-.58,4.15-.24.3-.32.97-.32,1.36-1.28,4.65-2.6,9.44-2.48,14.54-.28.23-.5.5-.62.78-.2.46-.15,1.19.08,1.74.01.42.09.81.23,1.18-2.44,1.91-1.65,4.47-1.23,5.86.17.53.34,1.12.31,1.43-.02.02-.04.04-.06.06-1.92,2.55-1.32,5.01-.54,7.19-.78,1.48-.87,3.18-.27,4.95-.04.1-.08.19-.1.29-1.27,5.49-1.06,11.19.64,16.95.01.05.04.11.06.16-.64,4.29.17,9.18,2.42,14.54,1.13,2.92,1.66,6.01,2.22,9.29.91,5.38,1.85,10.94,5.81,15.13-1.52,4.11,1.19,7.82,2.61,9.77,1.99,2.91,3.53,6.06,5.07,9.19,2.19,4.46,4.45,9.06,8.17,13.81.01.05.17.56.28.94-.02.3.04.61.18.89.42.84.9,1.73,2.04,2.78,1.03.57,1.69,1.13,2.47,2.17l4.16,3.81c.58.48,1.06.95,1.48,1.49-.04.18-.05.37-.04.56.36,3.5,2.61,5.38,4.6,7.05.51.43,1.03.86,1.5,1.31.53,1.41,1.54,2.44,2.46,3.34,1.13,1.14,1.84,1.89,1.91,2.98.04.52.31,1.01.75,1.31,1.49,1.01,2.74,2.38,4.07,3.81,1.91,2.09,3.9,4.25,5.98,4.82,3.81,6.02,10.96,9.23,17.88,12.34,5.4,2.42,10.98,4.94,14.93,8.85,2.67,2.1,5.64,3.49,8.51,4.85l2.86,1.38,6.43,2.89c1.84.49,3.59,1.59,6.05,2.86.56,0,1.11.13,1.65.29l1.62.59c1.21.45,2.35.87,3.64,1.45,3.14,1.12,6.3,2.16,9.44,3.2,7.46,2.45,14.51,4.76,21.19,8.11.08.04.51.05.56.05,2.17,1.32,4.4,2.59,6.61,3.86,2.01,1.15,4.02,2.3,5.98,3.48.13.08.24.12.35.12.27,0,.5-.21.87-.37.12.82.44.83,1.27.83h.04c0,.51.23,1,.62,1.33l1.43,1.15.87.43c.32.78,1,1.79,2.42,2.4l4.21,3.97c9.01,8.52,18.33,17.33,29.68,23.1.06.03.14.04.22.04,3.67,2.62,7.22,4.64,10.78,6.11.11.12.21.21.33.3.49.34.99.68,1.54,1,5.39,2.84,10.97,4.99,16.38,7.08,2.63,1.01,5.26,2.03,7.9,3.14,4.94,1.95,10.18,2.78,15.25,3.59,1.88.3,3.77.61,5.41.89.76.26,1.49.39,2.16.4,1.47,0,2.68-.65,3.33-1.77.62-1.08.61-2.46-.05-3.59Z"/>
    <polygon class="st0" points="356.84 379.52 338.73 379.52 321.56 475.74 339.67 475.74 356.84 379.52"/>
    <polygon class="st0" points="1118.63 398.57 1141.03 398.57 1127.22 477.06 1145.38 477.06 1159.2 398.73 1181.76 398.73 1184.96 380.79 1121.99 380.62 1118.63 398.57"/>
    <path class="st0" d="M1227.94,404.51v-.33c2.81-.94,4.46-2.81,4.68-5.06,0-2.26-.94-3.91-2.09-5.06-1.49-1.1-3.36-1.87-7.98-1.87-3.96,0-7.49.61-8.81.94l-.17,22.62h6.17v-8.42h1.87c2.04,0,2.97,1.16,3.36,3.58.55,2.04.94,3.91,1.49,4.84h6.71c-.16-.94-.77-2.04-1.32-5.39-.55-3.36-1.87-5.23-3.91-5.83ZM1221.78,402.64h-1.71l-.17-5.39c.55,0,1.32-.16,2.26-.16,2.04,0,3.36.94,3.36,2.81,0,1.49-1.32,2.75-3.74,2.75Z"/>
    <path class="st0" d="M1222.72,379.3c-12.55,0-22.62,11.01-22.79,24.49-.22,13.65,9.91,24.66,22.24,24.66s22.4-11.01,22.4-24.66c.39-13.49-9.36-24.49-21.85-24.49ZM1222.17,422.46c-8.97,0-15.69-8.2-15.52-18.49.16-10.24,6.93-18.49,15.91-18.49s15.69,8.26,15.47,18.49c-.16,10.29-6.88,18.71-15.85,18.49Z"/>
    <polygon class="st0" points="656.16 476.29 674.33 476.29 691.5 380.07 673.39 380.07 656.16 476.29"/>
    <path class="st0" d="M547.23,385.69c-6.17-5.06-14.92-6.38-22.4-6.55-8.2,0-16.84.94-22.07,2.59l-16.79,94.4h17.72l6.16-34.79c1.87.39,4.51.55,7.49.55,10.29,0,20.2-2.59,27.08-8.75,6.77-5.78,11.78-14.97,11.78-27.08.22-9.36-3.36-16.07-8.97-20.37ZM519.77,425.26c-2.97,0-5.01-.38-6.88-.72l5.01-28.4c1.49-.39,3.96-.77,7.32-.77,7.1,0,12.88,2.97,12.88,12.33-.17,9.52-7.27,17.56-18.33,17.56Z"/>
    <path class="st0" d="M632.05,384.75c-5.78-4.13-14.2-5.61-22.24-5.61s-16.95.94-22.57,2.59l-17.23,94.4h17.94l6.77-37.98h5.56c7.1,0,10.68,3.58,11.23,15.36.77,11.78,1.49,20.15,2.26,22.62h18.66c-1.49-3.96-2.04-16.68-2.97-27.3-.77-8.81-2.81-15.14-7.87-17.56v-.55c10.84-3.96,19.43-12.93,19.65-27.14,0-8.97-3.74-15.14-9.19-18.82ZM605.19,422.68h-7.71l4.9-26.53c1.49-.39,3.52-.77,7.1-.77,7.1,0,12.88,3.58,12.88,11.23-.16,9.52-7.27,16.07-17.17,16.07Z"/>
    <path class="st0" d="M429.72,416.13c-3.74,8.75-8.42,19.98-11.78,30.66h-.55c0-10.68-.77-21.69-1.1-30.88l-2.26-36.22h-24.27l-22.24,96.21h16.62l8.75-39.8c2.26-10.29,4.9-24.82,7.49-37.54h.16c.39,12.88.94,26.15,1.54,36.6l2.59,39.08h14.04l17.72-39.47c4.68-10.46,10.29-23.89,14.97-36.22h.39c-2.64,13.82-4.68,27.08-6,37.54l-5.61,39.8h17.78l12.5-96.21h-24.49l-16.24,36.44Z"/>
    <path class="st0" d="M903.19,426.2c-4.29,9.91-8.42,20.2-11.56,29.72h-.22c-.39-10.07-.94-19.43-1.65-29.5l-3.19-45.8h-18.71l9.58,96.43,20.53-.39,44.86-96.27h-20.2l-19.43,45.8Z"/>
    <polygon class="st0" points="948.6 476.84 1000.56 476.84 1003.7 459.28 969.91 459.28 974.03 435.94 1004.09 435.94 1007.28 418.71 977.17 418.71 980.91 398.18 1012.89 398.18 1016.03 380.62 965.78 380.62 948.6 476.84"/>
    <path class="st0" d="M1088.91,385.69c-5.78-4.13-14.2-5.61-22.24-5.61s-17.01.94-22.57,2.59l-17.23,94.18h17.94l6.72-37.92h5.61c7.1,0,10.68,3.58,11.23,15.3.77,12,1.49,20.2,2.26,22.84h18.66c-1.49-3.96-2.04-16.68-2.97-27.3-.77-8.81-2.81-15.14-7.87-17.56v-.55c10.84-3.96,19.43-12.94,19.65-27.14.16-8.97-3.74-15.14-9.19-18.82ZM1061.83,423.61h-7.49l4.9-26.53c1.49-.39,3.69-.77,7.1-.77,7.1,0,12.88,3.58,12.66,11.23,0,9.52-7.27,16.07-17.17,16.07Z"/>
    <path class="st0" d="M764.54,416.84c-3.74,8.81-8.42,20.04-11.78,30.66h-.55c0-10.62-.72-21.69-1.1-30.66l-2.26-36.6h-24.27l-22.24,96.21h16.62l8.81-39.8c2.2-10.24,4.84-24.82,7.43-37.54h.22c.33,12.88.94,26.15,1.49,36.82l2.59,39.02h14.04l17.72-39.41c4.68-10.46,10.29-23.94,14.97-36.27h.39c-2.64,13.87-4.68,27.14-6.16,37.59l-5.61,39.8,17.72-.22,12.55-96.21h-24.49l-16.07,36.6Z"/>
    <polygon class="st0" points="829.77 417.45 841.16 417.45 850.9 377.82 834.06 377.82 829.77 417.45"/>
  </g>
</svg>