<?xml version="1.0" encoding="UTF-8"?>
<svg id="Info-tri" xmlns="http://www.w3.org/2000/svg" version="1.1" viewBox="0 0 60.18 22.68">
  <defs>
    <style>
      .cls-1 {
        fill: #0b0f10;
      }

      .cls-1, .cls-2 {
        stroke-width: 0px;
      }

      .cls-2 {
        fill: #fff;
      }
    </style>
  </defs>
  <path class="cls-2" d="M9.26,22.68C4.15,22.68,0,18.57,0,13.52V0s50.92,0,50.92,0c5.11,0,9.26,4.11,9.26,9.15v13.52H9.26Z"/>
  <path class="cls-2" d="M50.92,2.13H18.79v11.4c0,3.87,3.2,7.03,7.13,7.03h32.13v-11.4c0-3.87-3.2-7.03-7.13-7.03"/>
  <path class="cls-1" d="M57.34,19.84h-31.42c-3.54,0-6.43-2.83-6.43-6.32V2.83h31.42c3.54,0,6.43,2.83,6.43,6.32v10.69ZM50.92,2.13H18.79v11.4c0,3.87,3.2,7.03,7.13,7.03h32.13v-11.4c0-3.87-3.2-7.03-7.13-7.03"/>
  <path class="cls-1" d="M36.58,20.55l4.88-9.97-4.99-8.46h14.44c3.93,0,7.13,3.15,7.13,7.03v11.4h-21.47Z"/>
  <path class="cls-1" d="M50.92,2.83h-13.2l4.55,7.72-4.55,9.29h19.63v-10.69c0-3.48-2.88-6.32-6.43-6.32"/>
  <path class="cls-2" d="M52.78,15.5h-.45s-.07,0-.11.01c.21-2.35.54-5.97.69-7.61.02-.17-.11-.32-.27-.33-.17-.02-.32.11-.33.27-.24,2.52-.88,9.71-.89,9.79-.01.12-.13.22-.27.22h-4.91c-.14,0-.26-.1-.27-.22,0-.07-.65-7.27-.89-9.79-.02-.17-.16-.29-.33-.27-.17.02-.29.16-.27.33.16,1.64.48,5.26.69,7.61-.03,0-.07-.01-.11-.01h-.45c-.29,0-.53.24-.53.53v1.9c0,.29.24.53.53.53h.45c.22,0,.41-.13.49-.32.16.2.41.32.69.32h4.91c.28,0,.53-.13.69-.32.08.19.27.32.49.32h.45c.29,0,.53-.24.53-.53v-1.9c0-.29-.24-.53-.53-.53"/>
  <path class="cls-2" d="M46.8,9.3v.86h.25c.15,0,.23-.07.23-.28v-.24c0-.26-.08-.34-.28-.34h-.2ZM46.8,8.16v.74h.17c.16,0,.26-.07.26-.3v-.16c0-.2-.07-.29-.22-.29h-.21ZM47.67,8.41v.1c0,.29-.09.47-.28.56h0c.24.1.33.31.33.6v.23c0,.43-.23.66-.67.66h-.69v-2.8h.66c.46,0,.65.21.65.64"/>
  <path class="cls-2" d="M48.48,9.67h.42l-.21-1.42h0l-.21,1.42ZM49.49,10.56h-.44l-.08-.51h-.54l-.08.51h-.4l.45-2.8h.64l.45,2.8Z"/>
  <path class="cls-2" d="M51.04,9.52v.37c0,.45-.22.7-.66.7s-.66-.26-.66-.7v-1.46c0-.45.22-.7.66-.7s.66.26.66.7v.27h-.42v-.3c0-.2-.09-.28-.23-.28s-.23.08-.23.28v1.51c0,.2.09.27.23.27s.23-.07.23-.27v-.4h.42Z"/>
  <path class="cls-2" d="M47.68,11.58v2h.25c.14,0,.22-.07.22-.27v-1.46c0-.2-.08-.27-.22-.27h-.25ZM47.24,11.18h.7c.44,0,.66.24.66.69v1.42c0,.45-.22.69-.66.69h-.7v-2.8Z"/>
  <polygon class="cls-2" points="49.4 12.36 50 12.36 50 12.76 49.4 12.76 49.4 13.58 50.16 13.58 50.16 13.98 48.96 13.98 48.96 11.18 50.16 11.18 50.16 11.58 49.4 11.58 49.4 12.36"/>
  <polygon class="cls-2" points="46.73 14.61 48.09 14.61 48.09 15.01 47.63 15.01 47.63 17.4 47.19 17.4 47.19 15.01 46.73 15.01 46.73 14.61"/>
  <path class="cls-2" d="M48.8,15.01v.86h.17c.16,0,.26-.07.26-.3v-.28c0-.2-.07-.29-.22-.29h-.21ZM49.28,17.4c-.02-.07-.04-.12-.04-.34v-.44c0-.26-.09-.36-.29-.36h-.15v1.14h-.44v-2.8h.66c.46,0,.65.21.65.64v.22c0,.29-.09.47-.29.56h0c.22.1.29.31.29.6v.43c0,.14,0,.24.05.34h-.45Z"/>
  <rect class="cls-2" x="50.05" y="14.61" width=".44" height="2.8"/>
  <path class="cls-2" d="M53.09,6.49h-8.79v-.73s.01-.04,0-.04h.64c.07,0,.14-.03.2-.07l.8-.7s.12-.06.23-.06h5.05c.11,0,.2.03.23.06l.8.7c.05.05.12.07.2.07h.64s0,.01,0,.04v.73ZM53.08,5.12h-.52l-.71-.62c-.15-.13-.38-.21-.62-.21h-5.05c-.24,0-.47.08-.62.21l-.71.62h-.52c-.33,0-.6.28-.6.63v.8c0,.11.03.22.08.32.02.04.06.08.1.1.1.06.21.1.32.1h8.98c.11,0,.23-.03.32-.1.04-.03.07-.06.1-.1.05-.1.08-.21.08-.32v-.8c0-.35-.27-.63-.6-.63"/>
  <path class="cls-2" d="M51.22,5.16h-5.05c-.14,0-.25.11-.25.25s.11.25.25.25h5.05c.14,0,.25-.11.25-.25s-.11-.25-.25-.25"/>
  <path class="cls-1" d="M10.65,9.66c-.63.93-.1,2.16.56,2.78.6.57,1.08.7,1.14.72l.3-.58.88,2.4-2.49.51.33-.61-.34-.19c-1.05-.68-1.27-1.61-1.34-1.9-.12-.5-.31-1.99.95-3.13"/>
  <path class="cls-1" d="M10.64,9.7c.45,1.03,1.78,1.23,2.65,1.01.78-.2,1.15-.52,1.21-.58h0s-.33-.58-.33-.58l2.5.55-.91,2.37-.33-.6-.33.18c-1.13.52-2.04.21-2.32.12-.49-.16-1.85-.8-2.14-2.47"/>
  <path class="cls-1" d="M15.06,7.2c-.17,1.24-.92,1.83-1.15,2.02-.4.32-1.67,1.12-3.24.47,1.12.18,2-.83,2.28-1.69.26-.77.18-1.26.17-1.33h0s-.66-.03-.66-.03l1.81-1.81,1.51,2.04-.68-.04-.03.38Z"/>
  <path class="cls-1" d="M7.48,6.16c-.57,0-1.03-.46-1.03-1.03s.46-1.03,1.03-1.03,1.03.46,1.03,1.03-.46,1.03-1.03,1.03"/>
  <path class="cls-1" d="M5.88,11.17c.09-.24.22-.23.22-.23,0,0,.12-.03.18.22l.97,3.39c-.8-.23-1.54-.63-2.16-1.16l.79-2.22ZM8.89,2.13c-3.73,0-6.76,3.03-6.76,6.76s3.03,6.76,6.76,6.76c.2,0,.4-.01.59-.03l.05.68,1.24-1.2-1.38-1.06.05.71c-.18.02-.36.03-.54.03-.29,0-.57-.02-.84-.06l-.03-.18-.64-5.48c-.09-1.03.5-1.2.87-1.04l2.05.82c.24.1.35-.1.35-.1,0,0,.13-.21-.1-.36,0,0-2.8-1.85-3.39-1.96-.81-.15-1.62.51-1.8,1.36l-.99,4.86c-.85-1.02-1.37-2.34-1.37-3.77,0-3.25,2.65-5.9,5.9-5.9,1.74,0,3.3.76,4.38,1.96l.61-.61c-1.24-1.35-3.02-2.2-4.99-2.2"/>
  <path class="cls-1" d="M23.61,15.34l7.29,1.56.03-.03c.39-.49.85-1.28,1.21-2.09.82-1.84,1.35-4.08,1.6-6.64.03-.33.09-1.13.1-1.42l-7.31-1.56c0,.48-.02,1.38-.06,1.9-.25,3.03-1.08,5.67-2.39,7.65-.13.2-.31.45-.45.63M30.97,17.29s-.03,0-.04,0l-7.7-1.65c-.06-.01-.12-.06-.14-.12-.02-.06-.01-.13.03-.18l.11-.14c.14-.17.36-.48.51-.7,1.28-1.93,2.09-4.51,2.33-7.48.05-.56.08-1.64.06-2.02v-.08c0-.06.02-.11.06-.15.04-.04.1-.05.16-.04l7.7,1.64c.09.02.15.1.15.19v.13c-.02.27-.08,1.12-.11,1.47-.25,2.61-.8,4.88-1.63,6.76-.37.84-.84,1.66-1.26,2.17l-.1.12s-.09.07-.14.07"/>
  <path class="cls-1" d="M30.32,9.83s-.01,0-.02,0l-2.74-.53c-.06-.01-.1-.07-.09-.13.01-.06.07-.1.13-.09l2.74.53c.06.01.1.07.09.13-.01.05-.06.09-.11.09"/>
  <path class="cls-1" d="M30.14,10.59s-.01,0-.02,0l-2.74-.53c-.06-.01-.1-.07-.09-.13.01-.06.07-.1.13-.09l2.74.53c.06.01.1.07.09.13-.01.05-.06.09-.11.09"/>
  <path class="cls-1" d="M29.94,11.36s-.01,0-.02,0l-2.74-.53c-.06-.01-.1-.07-.09-.13.01-.06.07-.1.13-.09l2.74.53c.06.01.1.07.09.13-.01.05-.06.09-.11.09"/>
  <path class="cls-1" d="M29.72,12.09s-.01,0-.02,0l-2.74-.53c-.06-.01-.1-.07-.09-.13.01-.06.07-.1.13-.09l2.74.53c.06.01.1.07.09.13-.01.05-.06.09-.11.09"/>
  <path class="cls-1" d="M31.95,14.14s-.02,0-.02,0l-6.37-1.35c-.06-.01-.1-.07-.08-.13.01-.06.07-.1.13-.08l6.37,1.35c.06.01.1.07.08.13-.01.05-.06.09-.11.09"/>
  <path class="cls-1" d="M32.17,10.23s-.02,0-.02,0l-.7-.15c-.06-.01-.1-.07-.09-.13.01-.06.07-.1.13-.09l.7.15c.06.01.1.07.09.13-.01.05-.06.09-.11.09"/>
  <path class="cls-1" d="M31.98,10.99s-.02,0-.02,0l-.7-.15c-.06-.01-.1-.07-.09-.13.01-.06.07-.1.13-.08l.7.15c.06.01.1.07.09.13-.01.05-.06.09-.11.09"/>
  <path class="cls-1" d="M31.79,11.76s-.02,0-.02,0l-.7-.15c-.06-.01-.1-.07-.09-.13.01-.06.07-.1.13-.08l.7.15c.06.01.1.07.09.13-.01.05-.06.09-.11.09"/>
  <path class="cls-1" d="M31.57,12.49s-.02,0-.02,0l-.7-.15c-.06-.01-.1-.07-.09-.13.01-.06.07-.1.13-.09l.7.15c.06.01.1.07.09.13-.01.05-.06.09-.11.09"/>
  <path class="cls-1" d="M30.84,14.88s-.02,0-.02,0l-.7-.15c-.06-.01-.1-.07-.09-.13.01-.06.07-.1.13-.08l.7.15c.06.01.1.07.09.13-.01.05-.06.09-.11.09"/>
</svg>